<?xml version="1.0" standalone="no"?>
<!DOCTYPE svg PUBLIC "-//W3C//DTD SVG 20010904//EN"
 "http://www.w3.org/TR/2001/REC-SVG-20010904/DTD/svg10.dtd">
<svg version="1.0" xmlns="http://www.w3.org/2000/svg"
 width="1215.000000pt" height="1221.000000pt" viewBox="0 0 1215.000000 1221.000000"
 preserveAspectRatio="xMidYMid meet">

<g transform="translate(0.000000,1221.000000) scale(0.100000,-0.100000)"
fill="#000000" stroke="none">
<path d="M6790 12170 c-19 -30 -31 -40 -51 -40 -18 0 -33 -9 -45 -27 -21 -32
-140 -173 -160 -189 -10 -8 -25 -8 -52 -1 -76 20 -147 -13 -337 -155 -57 -43
-112 -78 -122 -78 -19 0 -113 132 -128 180 -17 54 -82 136 -124 155 -25 11
-45 15 -50 9 -14 -14 -70 -198 -93 -299 -10 -49 -23 -138 -28 -197 -5 -64 -16
-120 -26 -140 -22 -43 -180 -196 -207 -200 -16 -2 -25 -15 -34 -49 -14 -50
-53 -99 -77 -99 -18 0 -167 100 -261 176 -81 65 -108 77 -147 69 -23 -5 -28
-12 -28 -36 0 -31 8 -40 85 -92 56 -37 174 -177 211 -250 28 -54 33 -41 -60
-155 -51 -63 -62 -72 -89 -69 -29 2 -31 -1 -49 -58 -22 -74 -23 -89 -3 -81 29
11 14 -8 -75 -100 -49 -50 -90 -97 -90 -105 0 -7 12 -23 26 -34 l26 -21 -54
-59 c-29 -33 -57 -60 -63 -60 -10 0 -10 87 1 179 7 55 -10 57 -24 3 -5 -18
-18 -37 -29 -42 -16 -8 -19 -15 -12 -27 6 -11 4 -18 -6 -22 -8 -3 -15 -15 -15
-26 0 -29 -14 -54 -75 -130 -28 -36 -59 -78 -69 -95 -10 -16 -36 -53 -57 -80
-53 -71 -61 -95 -69 -230 -5 -90 -12 -132 -28 -169 -23 -51 -22 -67 2 -47 30
25 58 106 71 206 13 103 23 133 54 169 15 17 16 16 21 -25 4 -37 8 -43 25 -41
19 4 18 2 -4 -22 -22 -24 -24 -31 -18 -112 5 -87 15 -108 44 -97 10 4 11 9 4
16 -6 6 -11 34 -11 63 0 51 1 52 66 142 16 21 16 24 -1 36 -16 12 -16 14 9 41
14 15 26 38 26 51 0 30 10 54 22 54 10 0 7 -84 -13 -384 -9 -139 -33 -298 -47
-321 -3 -5 -13 25 -22 68 -17 89 -35 101 -35 24 0 -28 -3 -57 -7 -63 -5 -7 -1
-28 7 -48 22 -51 19 -75 -14 -125 l-30 -44 -39 84 c-63 137 -170 288 -193 273
-17 -10 -9 -44 17 -67 23 -20 110 -175 102 -182 -2 -2 -50 41 -108 95 -80 75
-107 95 -113 84 -11 -20 -3 -31 101 -123 50 -45 92 -84 92 -86 0 -14 -134 11
-185 35 -33 16 -87 33 -120 39 -120 22 -239 109 -298 219 l-28 52 133 -1 c158
0 194 -10 227 -61 25 -38 50 -43 30 -6 -11 20 -10 20 65 13 91 -8 94 -2 34 64
-53 59 -56 60 -129 72 -68 11 -124 36 -153 68 -11 12 -28 21 -39 21 -11 0 -51
11 -89 25 -40 14 -114 30 -172 36 -106 11 -141 25 -186 74 -71 76 -154 112
-286 125 -117 12 -190 40 -254 97 -50 45 -51 47 -44 89 5 38 3 48 -20 75 -35
41 -33 67 14 155 45 86 49 104 20 104 -29 0 -99 -74 -137 -145 -50 -93 -46
-89 -79 -72 -16 8 -44 37 -63 64 -49 70 -101 122 -142 143 -19 10 -77 28 -128
40 -76 18 -98 28 -126 56 -40 40 -44 40 -250 19 -77 -8 -159 -15 -182 -15
l-43 0 0 58 c0 65 -12 88 -52 97 -30 8 -68 -22 -68 -53 0 -18 -18 -42 -31 -42
-19 0 -40 36 -59 99 -25 85 -61 120 -102 99 -24 -12 -23 -50 3 -127 12 -34 19
-65 16 -68 -4 -3 -27 -9 -53 -14 -63 -12 -128 -46 -180 -95 -46 -43 -57 -82
-33 -125 12 -23 27 -25 -165 21 -106 25 -135 28 -166 20 -98 -26 -66 -58 132
-134 141 -54 191 -66 202 -47 8 13 -34 47 -94 75 -30 15 -46 23 -35 20 11 -4
47 -15 79 -25 32 -11 67 -17 76 -14 21 7 70 78 70 102 0 9 -9 26 -20 38 l-20
21 88 37 c125 53 164 48 208 -29 10 -17 21 -19 90 -16 44 1 131 11 194 22 161
27 244 34 265 23 13 -8 3 -11 -43 -16 -33 -4 -104 -23 -158 -43 -82 -31 -103
-35 -125 -27 -23 9 -37 6 -79 -13 -29 -13 -57 -24 -64 -24 -7 0 -45 21 -86 46
l-75 46 -42 -48 c-63 -74 -106 -149 -107 -192 -1 -33 2 -37 25 -40 17 -2 42 9
75 33 68 49 75 51 90 29 29 -42 34 -45 56 -33 11 6 47 35 79 65 32 29 69 56
83 60 42 10 70 1 76 -26 5 -21 13 -26 55 -30 42 -4 46 -7 32 -18 -17 -15 -33
-69 -23 -80 4 -3 46 -11 94 -17 l87 -11 -47 -21 c-29 -13 -52 -32 -62 -52 -21
-40 -21 -80 1 -87 79 -26 88 -37 53 -69 -11 -10 -20 -30 -20 -45 0 -23 7 -31
40 -44 22 -9 52 -16 65 -16 26 0 46 -16 80 -63 18 -25 44 -35 205 -81 153 -43
330 -109 330 -122 0 -2 -25 -42 -55 -89 -31 -47 -53 -90 -50 -95 21 -34 103
17 136 83 12 23 23 44 25 46 3 3 38 -13 80 -34 72 -37 77 -38 102 -24 15 8 28
24 30 35 4 25 -34 74 -56 74 -26 0 -86 41 -118 79 l-28 33 32 27 c18 14 32 33
32 41 0 33 -51 90 -110 121 -35 18 -68 45 -78 62 -18 31 -78 67 -111 67 -11 0
-23 5 -26 10 -3 6 3 10 15 10 29 0 57 16 70 40 16 30 -7 66 -69 107 -31 20
-57 37 -59 38 -2 2 7 21 18 43 25 48 16 78 -28 88 -50 10 -71 23 -86 52 -16
31 -44 46 -128 68 l-53 13 60 -4 c41 -3 80 -14 130 -39 60 -30 89 -55 199
-171 79 -84 126 -141 123 -150 -4 -9 4 -16 26 -20 62 -12 87 -28 122 -76 61
-85 159 -126 359 -149 97 -12 146 -32 190 -79 34 -35 31 -41 -36 -66 -46 -17
-90 -55 -101 -88 -11 -31 21 -31 91 1 37 17 98 36 135 43 94 16 270 7 326 -16
51 -21 43 -30 -46 -45 -133 -21 -335 -85 -375 -118 -21 -18 -33 -71 -19 -85
12 -12 24 -9 179 52 57 22 109 38 115 35 7 -2 32 -40 57 -83 29 -51 65 -95
100 -125 61 -53 174 -111 235 -121 22 -4 115 -32 207 -62 150 -48 171 -58 194
-88 14 -18 38 -38 55 -44 27 -9 29 -13 29 -64 0 -39 6 -61 20 -80 l20 -25 -35
-12 c-20 -7 -41 -21 -48 -31 -7 -11 -30 -28 -52 -39 -54 -26 -213 -148 -239
-183 -18 -24 -20 -40 -18 -126 4 -115 -13 -222 -38 -254 l-18 -22 -54 23 c-70
30 -252 55 -348 48 -146 -12 -308 -73 -419 -159 -52 -41 -97 -72 -217 -151
-32 -21 -77 -50 -98 -65 -62 -41 -201 -177 -288 -281 -79 -95 -99 -129 -212
-377 -64 -138 -69 -214 -32 -430 14 -84 26 -172 26 -196 0 -59 15 -100 63
-170 137 -204 273 -305 532 -396 139 -50 247 -64 408 -57 126 6 141 5 178 -14
42 -22 79 -71 79 -106 0 -37 -60 -112 -163 -207 -240 -219 -255 -236 -322
-394 -53 -122 -123 -362 -135 -459 -12 -94 -24 -122 -41 -92 -7 12 -22 18 -45
18 -43 0 -45 1 -214 110 -74 48 -208 124 -298 169 l-162 81 26 41 c14 23 34
61 44 85 11 24 23 44 27 44 4 0 32 -14 62 -31 l55 -32 -45 -38 c-28 -24 -40
-41 -34 -47 10 -9 297 -52 351 -52 18 0 42 8 55 19 21 17 22 21 11 59 -8 26
-20 43 -33 47 l-21 7 20 21 c26 27 42 69 42 108 0 30 -17 38 -36 19 -16 -16
-41 -2 -52 28 -6 15 -22 65 -36 112 -14 47 -41 116 -61 152 -47 89 -45 114 8
180 38 47 49 54 96 63 61 12 77 31 55 63 -20 28 -64 29 -121 1 -79 -38 -163
-166 -163 -248 0 -45 4 -54 62 -137 15 -22 34 -65 42 -96 19 -73 31 -198 20
-198 -18 0 -33 16 -39 41 -4 14 -28 48 -55 74 -43 42 -50 55 -56 101 -6 52 -7
53 -34 48 -29 -6 -90 17 -110 41 -9 11 -1 19 42 41 29 14 55 28 57 30 2 1 -6
19 -18 38 -16 26 -30 36 -53 38 -45 4 -46 24 -2 32 78 15 83 20 72 66 -8 30
-15 39 -27 36 -76 -21 -121 -13 -141 24 -16 30 -7 35 58 36 95 3 99 3 122 22
22 18 22 19 6 44 -16 25 -20 26 -114 25 -99 -1 -150 12 -160 42 -5 15 -5 15
218 -9 127 -14 210 -7 210 18 0 22 -299 174 -345 175 -17 0 -46 -5 -64 -12
-27 -12 -31 -18 -27 -40 5 -23 -3 -33 -65 -80 -38 -29 -69 -54 -67 -56 2 -2
29 -19 61 -38 57 -34 58 -35 30 -42 -29 -7 -63 -32 -63 -47 0 -4 25 -35 55
-68 30 -33 55 -62 55 -65 0 -3 -22 -19 -50 -36 -50 -31 -59 -42 -40 -54 6 -3
8 -16 5 -28 -5 -18 1 -26 30 -41 19 -11 35 -24 35 -31 0 -17 58 -68 113 -99
l49 -28 -26 -27 c-19 -20 -26 -38 -26 -68 0 -35 5 -46 36 -71 l36 -30 -18 -28
c-10 -16 -26 -39 -37 -50 -17 -20 -21 -21 -55 -8 -20 7 -53 15 -73 19 -33 5
-43 15 -88 83 -54 82 -80 148 -111 277 -25 102 -25 144 1 230 15 50 22 106 25
197 4 143 7 153 88 287 31 51 78 134 104 183 26 50 53 102 61 116 13 25 12 27
-25 59 -21 19 -61 45 -89 60 -63 32 -92 58 -115 104 -23 43 -56 173 -65 249
-4 30 -13 79 -21 109 -14 49 -14 55 2 72 17 18 16 20 -4 39 -12 12 -24 33 -28
48 -13 61 -28 100 -56 152 -17 30 -48 101 -70 158 -36 97 -39 115 -48 262 -5
86 -16 174 -24 196 -7 21 -43 85 -80 141 -67 104 -91 167 -87 237 2 44 -27
212 -41 240 -19 35 -16 177 5 230 39 104 50 269 29 456 -11 108 -21 145 -66
240 -32 70 -52 210 -32 225 8 6 48 16 89 23 87 15 107 30 85 64 -15 22 -13 23
36 43 40 16 52 25 54 45 2 14 20 41 43 61 l40 36 -26 32 -27 32 -46 -27 c-44
-26 -47 -26 -74 -11 -27 15 -28 15 -93 -35 -36 -28 -65 -53 -65 -56 0 -4 21
-28 47 -54 l47 -48 -34 0 c-19 0 -66 -12 -105 -25 -68 -24 -160 -34 -153 -16
14 36 107 161 130 174 37 21 45 43 23 67 -24 27 -40 25 -64 -6 l-20 -26 -78
17 c-107 22 -123 30 -123 58 0 13 -2 26 -5 29 -15 15 -252 -83 -269 -111 -3
-5 69 -8 162 -7 138 1 176 -2 220 -17 28 -10 52 -23 52 -29 0 -6 -43 -75 -95
-153 -104 -156 -138 -222 -167 -329 -31 -109 -33 -135 -13 -142 27 -11 74 44
127 151 52 106 100 165 159 195 l36 19 7 -47 c3 -25 26 -87 50 -137 50 -100
72 -189 81 -315 4 -47 8 -95 11 -107 2 -13 0 -23 -5 -23 -5 0 -11 12 -13 27
-9 73 -49 12 -90 -136 -24 -87 -17 -115 32 -126 28 -6 31 -10 25 -34 -19 -77
-17 -131 9 -237 27 -116 41 -205 51 -319 5 -64 3 -73 -19 -100 l-25 -30 -85
84 c-47 47 -89 82 -93 78 -3 -4 7 -22 23 -40 75 -80 134 -166 134 -194 0 -31
-57 -222 -70 -236 -4 -5 -68 52 -141 125 -74 74 -159 153 -190 177 -60 44
-109 105 -109 135 0 9 -28 46 -63 82 -54 55 -68 64 -98 64 -44 0 -144 -49
-188 -92 -32 -31 -33 -35 -27 -90 3 -32 21 -98 41 -148 19 -49 35 -93 35 -98
0 -4 13 -29 30 -55 16 -26 32 -58 36 -71 3 -14 20 -42 38 -63 18 -21 47 -60
65 -86 36 -52 119 -150 133 -155 24 -10 -1 33 -78 135 -107 143 -166 260 -235
462 -16 47 -29 86 -29 87 0 1 12 5 27 9 l28 7 -22 18 c-13 10 -23 20 -23 23 0
3 27 21 59 40 l59 35 74 -72 c40 -39 178 -174 307 -300 234 -228 234 -228 233
-269 -1 -23 -5 -50 -8 -61 -6 -18 -2 -19 53 -13 l59 6 101 -102 c56 -56 109
-118 118 -137 10 -19 33 -53 51 -76 19 -22 50 -74 69 -115 20 -41 47 -89 60
-108 14 -19 25 -44 25 -57 0 -25 -47 -87 -61 -79 -4 3 -42 55 -84 115 -74 107
-91 127 -101 117 -8 -8 49 -113 105 -197 52 -77 58 -99 41 -144 -8 -23 -7 -26
13 -26 16 0 28 -11 42 -36 17 -31 23 -35 47 -30 21 4 28 2 28 -9 0 -9 14 -40
31 -70 22 -39 29 -63 25 -80 -16 -63 -119 6 -156 105 -62 163 -205 315 -464
493 -66 45 -147 106 -179 136 -42 39 -61 51 -66 42 -6 -10 -10 -9 -14 3 -4 9
-18 16 -32 16 -29 0 -514 274 -666 376 -84 57 -104 66 -155 71 -39 4 -67 12
-81 26 -16 14 -29 18 -50 13 -15 -4 -38 -7 -51 -7 -27 1 -28 -17 -5 -85 21
-61 73 -125 127 -154 22 -13 66 -47 97 -76 31 -29 85 -66 120 -82 35 -17 104
-59 152 -94 49 -36 131 -87 183 -114 72 -37 94 -53 90 -66 -3 -14 1 -16 28
-11 17 3 32 10 34 15 2 4 8 8 13 8 13 0 113 -65 129 -85 18 -21 190 -108 198
-100 15 14 -145 120 -301 199 -67 34 -142 76 -166 92 -30 20 -46 25 -48 17 -5
-15 -82 34 -111 72 -11 14 -30 25 -43 26 -21 0 -21 1 -6 8 15 5 -1 18 -75 59
-132 74 -122 64 -104 100 9 17 16 33 16 37 0 3 -23 5 -51 5 l-52 0 6 45 c2 26
8 49 11 52 11 12 148 -60 226 -118 85 -63 121 -83 168 -94 22 -4 32 -12 32
-25 0 -19 56 -46 62 -29 4 13 133 -50 188 -92 25 -19 90 -65 145 -101 55 -36
126 -90 157 -120 31 -29 73 -66 92 -81 23 -17 36 -36 36 -51 0 -15 26 -48 80
-100 44 -43 80 -80 80 -83 0 -3 -16 4 -36 16 -43 26 -44 26 -44 3 0 -27 42
-62 83 -69 26 -4 37 -11 39 -26 2 -13 14 -23 31 -28 40 -11 57 -28 57 -56 0
-18 -4 -24 -14 -20 -8 3 -82 53 -165 111 -179 125 -185 128 -219 124 -25 -4
-25 -5 -7 -13 11 -4 41 -28 67 -52 30 -27 57 -43 72 -43 20 0 29 -8 40 -35 9
-22 33 -46 63 -66 l48 -31 -65 6 c-36 3 -110 15 -165 26 -153 29 -239 36 -233
19 3 -9 35 -20 84 -29 l79 -15 -65 -3 c-64 -3 -221 18 -187 26 21 4 22 16 3
31 -38 32 -326 -2 -359 -41 -18 -21 -18 -23 -1 -35 11 -8 49 -13 101 -13 46 0
83 -2 83 -5 0 -4 -7 -19 -16 -36 -8 -16 -13 -38 -9 -47 7 -24 157 -102 194
-102 33 0 71 -30 71 -55 0 -8 6 -15 13 -15 68 -1 223 -29 362 -66 219 -60 237
-63 318 -64 38 0 67 -4 67 -10 0 -6 -64 -52 -143 -103 -134 -88 -186 -135
-172 -157 18 -29 105 2 294 103 69 37 132 67 141 67 15 0 15 -7 -1 -87 -10
-49 -22 -140 -28 -204 -6 -68 -19 -142 -31 -180 -29 -84 -23 -165 24 -323 48
-160 45 -164 -96 -120 -143 45 -407 162 -573 255 -200 110 -235 125 -246 107
-11 -16 -4 -22 175 -125 77 -46 138 -83 135 -83 -4 0 -91 35 -195 79 -215 89
-397 154 -421 149 -8 -2 47 -27 123 -57 407 -158 551 -218 774 -320 135 -61
251 -115 258 -120 25 -16 3 -76 -49 -133 -107 -116 -121 -128 -156 -128 -35 0
-40 9 -21 39 35 56 -41 68 -140 21 -34 -16 -90 -38 -125 -49 -116 -36 -361
-80 -477 -86 l-115 -6 58 31 c32 17 133 60 225 96 92 36 186 76 209 89 48 29
141 55 193 55 27 0 43 7 63 28 30 32 34 54 12 72 -18 15 -176 35 -210 26 -42
-11 -28 -26 23 -26 58 0 125 -18 117 -31 -12 -18 -99 -56 -260 -114 -236 -84
-420 -161 -470 -195 -30 -20 -56 -30 -82 -30 -21 0 -55 -5 -76 -11 -31 -8 -38
-14 -35 -32 2 -17 13 -24 43 -30 22 -5 53 -15 68 -23 24 -12 29 -12 33 1 5 12
31 15 148 14 l141 -1 -105 -25 c-370 -86 -560 -142 -560 -165 0 -14 38 -6 320
68 289 76 435 108 455 100 8 -3 29 1 47 8 35 14 128 31 128 23 0 -3 -69 -63
-152 -134 -183 -153 -447 -384 -503 -439 -66 -65 -133 -148 -137 -169 -3 -17
2 -20 36 -18 40 3 139 55 265 139 36 24 66 42 68 40 2 -2 -8 -28 -23 -59 -14
-33 -23 -65 -19 -76 8 -26 63 -34 94 -14 14 9 90 83 169 165 184 189 434 374
566 419 50 18 108 71 100 92 -3 9 -19 19 -35 22 -34 8 -37 25 -8 51 18 16 35
19 111 18 49 -1 92 -4 95 -7 3 -3 -15 -34 -40 -69 -98 -135 -257 -375 -276
-418 -22 -47 -42 -82 -97 -168 -51 -78 -32 -63 24 20 27 40 60 82 72 93 l23
20 -13 -25 c-12 -23 -12 -24 3 -11 10 7 17 11 17 8 0 -3 -25 -65 -56 -137 -94
-225 -133 -327 -150 -395 -31 -124 6 -122 88 3 32 48 69 101 83 117 l26 30
-21 -43 c-33 -67 -17 -60 28 12 23 35 45 67 51 70 5 3 28 53 51 110 25 59 58
120 77 142 l35 39 -20 -35 c-11 -19 -29 -51 -41 -70 -24 -41 -28 -64 -5 -35 9
11 14 13 11 5 -36 -98 -67 -207 -67 -235 0 -65 29 -41 130 108 63 95 87 120
55 57 -27 -52 -11 -45 27 12 l34 52 90 1 c82 0 94 3 159 36 74 38 173 74 181
66 3 -3 -28 -60 -69 -128 -81 -136 -93 -168 -76 -201 7 -12 12 -35 11 -50 -1
-33 21 -48 72 -48 30 0 51 13 139 89 58 49 131 122 165 163 33 40 76 89 96
108 l37 35 -6 -45 c-7 -45 -16 -57 -87 -111 -30 -23 -39 -41 -68 -140 -19 -63
-51 -156 -72 -206 -38 -92 -44 -130 -28 -168 l8 -20 7 20 c33 93 34 94 28 15
-5 -68 -3 -77 16 -94 12 -11 22 -17 24 -15 16 23 40 126 52 224 20 157 54 292
80 324 12 14 37 54 55 89 18 34 35 60 37 58 3 -2 -19 -68 -48 -146 -55 -149
-55 -169 -5 -156 41 10 57 46 97 219 41 173 53 210 75 228 11 9 14 6 14 -17
-1 -64 -32 -169 -100 -340 -81 -201 -100 -240 -142 -302 -17 -24 -35 -60 -40
-80 -6 -20 -19 -47 -29 -61 -24 -30 -24 -73 -1 -94 25 -23 27 -22 28 12 1 17
31 83 67 148 94 171 139 263 208 430 33 81 62 149 63 151 6 5 54 -96 59 -125
4 -18 0 -54 -8 -80 -8 -26 -15 -49 -15 -50 0 -2 29 -3 65 -3 75 0 60 16 175
-184 74 -129 76 -131 113 -134 34 -3 37 -1 37 22 0 14 -17 52 -37 83 -51 80
-105 208 -153 363 -38 127 -49 202 -34 257 6 23 6 23 45 -7 21 -17 47 -45 58
-63 11 -18 42 -48 68 -67 26 -19 76 -60 109 -92 69 -63 109 -86 203 -117 80
-26 86 -31 123 -105 37 -75 53 -93 99 -117 21 -10 47 -35 60 -56 23 -37 111
-137 228 -258 32 -33 68 -75 80 -93 12 -18 37 -39 54 -48 18 -9 50 -36 73 -60
l41 -44 -46 -21 c-25 -12 -69 -24 -96 -26 l-51 -5 4 40 c2 22 -1 43 -7 46 -6
4 -36 -2 -67 -13 -98 -37 -116 -29 -195 85 -56 81 -72 94 -116 94 -56 0 -56
-12 -2 -82 29 -38 48 -72 44 -78 -5 -8 -28 -10 -77 -5 -71 7 -114 -2 -150 -33
-24 -20 -9 -37 61 -68 l55 -25 -95 -95 c-90 -91 -93 -96 -74 -110 11 -8 26
-12 35 -8 8 3 48 17 88 29 40 13 100 39 133 59 67 40 85 44 74 19 -87 -215
-129 -353 -109 -353 22 0 53 33 65 68 6 20 27 71 46 113 30 66 43 82 88 113
l53 37 35 -21 c32 -19 36 -19 51 -5 9 10 16 33 16 55 0 38 1 39 33 34 17 -2
88 -11 156 -18 l124 -14 86 -60 c83 -57 145 -86 173 -81 7 2 27 -11 45 -28 31
-29 96 -53 146 -53 53 0 183 -79 299 -180 62 -55 153 -126 201 -157 188 -123
239 -178 278 -301 18 -57 22 -108 31 -352 7 -196 7 -319 0 -395 -11 -110 -112
-705 -133 -780 -6 -22 -30 -69 -54 -105 -78 -120 -80 -126 -62 -144 27 -27 43
-18 103 60 87 113 94 127 104 201 4 37 15 86 23 108 9 25 13 59 10 90 -3 38 8
102 49 270 l53 220 -3 179 -2 178 30 35 c25 28 30 43 31 86 1 77 14 155 23
136 3 -8 0 -73 -9 -145 -8 -71 -15 -166 -15 -212 0 -59 -5 -90 -16 -107 -21
-32 -33 -140 -35 -321 -2 -137 0 -147 20 -167 18 -19 23 -20 35 -7 24 26 47
113 53 203 3 48 3 87 0 87 -15 0 -31 -51 -37 -115 l-6 -70 -13 44 c-15 54 -6
132 19 164 17 20 19 20 25 5 8 -20 35 -24 35 -5 0 6 14 116 30 242 19 146 34
326 42 495 11 246 13 261 25 220 8 -26 18 -142 23 -275 16 -395 20 -437 38
-433 26 5 42 48 42 113 0 33 3 77 6 97 6 33 9 36 25 27 18 -9 19 -19 13 -147
-4 -95 -1 -185 10 -292 9 -85 16 -191 16 -236 0 -90 13 -140 40 -154 27 -14
43 12 41 68 -1 26 -12 119 -25 206 -21 143 -22 165 -10 210 8 28 14 74 15 101
2 149 44 -160 55 -400 3 -77 12 -176 19 -220 8 -44 19 -115 25 -159 17 -128
88 -361 135 -442 30 -52 109 -124 135 -124 20 0 40 33 40 66 0 8 -20 36 -45
61 -38 40 -51 66 -93 187 -100 285 -117 361 -132 591 -18 286 -29 403 -56 574
-14 90 -24 164 -22 165 2 1 15 10 31 19 29 19 37 47 12 47 -19 0 -20 -3 15 72
26 56 28 68 19 101 -19 70 12 203 82 346 71 145 132 215 214 245 28 10 73 31
100 46 28 16 108 52 179 80 146 58 161 67 264 163 95 87 138 109 230 115 l72
5 0 -32 c0 -21 9 -41 26 -57 21 -22 31 -25 60 -20 33 7 34 6 34 -23 0 -43 16
-78 41 -91 32 -17 60 15 74 87 6 32 16 58 21 58 16 -1 113 -138 127 -179 17
-51 43 -68 63 -42 19 27 19 146 -2 194 -9 22 -13 50 -9 68 5 29 1 36 -46 75
-28 24 -46 45 -40 47 7 2 45 -10 86 -28 66 -29 76 -31 94 -18 21 15 21 15 -9
61 -16 25 -39 51 -52 58 -13 6 -25 13 -27 15 -2 2 6 15 18 30 28 35 27 58 -4
72 -19 9 -37 7 -94 -13 -73 -26 -121 -32 -121 -16 0 6 26 30 58 55 32 24 131
120 220 211 202 208 216 233 237 420 8 72 17 145 20 163 l6 34 53 -50 c64 -60
101 -70 195 -52 36 7 98 18 137 25 91 16 135 37 178 86 42 46 61 108 76 243
18 167 57 312 83 303 7 -2 17 -40 23 -88 7 -46 15 -95 19 -108 7 -22 6 -23
-18 -19 -32 6 -48 -10 -78 -76 -14 -34 -19 -60 -16 -84 4 -22 0 -46 -10 -65
-8 -17 -30 -69 -48 -116 -18 -47 -56 -147 -84 -221 -87 -228 -174 -577 -155
-621 8 -18 20 15 62 177 87 335 134 475 175 529 l16 20 -4 -20 c-2 -11 -14
-72 -25 -135 -37 -205 -112 -437 -194 -598 l-26 -52 27 -12 c16 -7 29 -13 31
-14 2 -1 -21 -47 -50 -102 -50 -94 -52 -101 -41 -133 10 -28 10 -43 -2 -82
-12 -42 -12 -47 1 -47 9 0 22 7 30 15 10 10 35 15 73 15 74 0 79 5 215 232
169 283 252 462 272 586 4 24 8 41 11 39 9 -9 33 -247 44 -432 8 -147 15 -205
26 -222 14 -21 14 -37 4 -126 -10 -92 -10 -103 5 -114 9 -7 21 -14 25 -15 12
-4 -8 -207 -25 -256 -14 -39 -13 -43 19 -111 29 -60 38 -71 59 -71 14 0 27 -4
30 -8 10 -17 -13 -135 -30 -154 -20 -21 -10 -50 18 -56 17 -3 27 40 47 203 13
100 9 88 126 400 54 143 110 278 126 300 34 47 91 199 87 229 -2 17 -8 12 -30
-25 -35 -59 -50 -65 -72 -28 -17 28 -17 37 -1 167 11 88 24 153 38 182 21 46
34 146 37 300 2 80 3 82 11 36 9 -56 25 -79 35 -52 4 9 -5 73 -18 141 -22 108
-23 123 -9 115 53 -28 74 -79 126 -306 55 -239 61 -284 70 -539 4 -111 12
-206 18 -213 5 -7 18 -10 28 -7 30 10 33 -16 15 -162 -9 -76 -13 -140 -8 -145
13 -13 59 8 75 34 8 13 17 60 20 106 4 58 11 92 26 118 12 19 21 49 21 66 0
17 13 54 29 82 28 49 30 58 41 251 14 250 15 258 47 295 22 27 27 29 42 17 40
-35 91 -21 91 23 0 28 -44 141 -73 186 -30 49 -44 93 -51 169 -4 33 -18 95
-32 139 -22 64 -24 80 -13 87 33 21 57 6 162 -99 l107 -107 0 -98 c0 -66 4
-97 11 -97 9 0 10 -21 6 -70 -6 -75 2 -93 27 -58 l16 22 0 -24 c0 -14 7 -43
15 -65 8 -22 14 -77 15 -122 0 -45 5 -94 10 -109 10 -26 11 -26 30 -9 26 23
25 52 0 296 -12 105 -19 197 -17 203 2 6 15 -10 27 -36 26 -53 40 -61 73 -49
46 18 51 33 38 133 -7 50 -17 100 -22 110 -8 14 -7 39 2 84 13 63 12 66 -25
177 -21 61 -49 141 -63 175 -18 47 -22 67 -14 75 6 6 11 18 11 26 -1 27 -69
111 -104 128 -25 11 -36 24 -40 47 -4 17 -20 45 -37 62 l-30 31 29 12 c42 18
70 50 92 109 l19 51 -35 11 c-29 10 -62 7 -199 -16 -197 -34 -211 -30 -147 40
47 51 66 91 83 176 11 58 11 62 -11 85 -13 14 -29 25 -36 25 -17 0 -70 -62
-95 -111 -15 -31 -24 -38 -32 -30 -17 17 -42 13 -62 -9 -10 -11 -20 -19 -22
-17 -2 2 28 76 65 163 38 87 91 216 117 287 43 115 65 153 65 113 0 -21 39
-46 71 -46 22 0 40 -15 88 -72 33 -40 75 -100 92 -133 18 -33 37 -63 43 -67
15 -10 47 0 70 22 18 17 15 23 -74 191 -99 187 -143 244 -201 259 l-37 10 -7
73 c-14 145 -110 496 -161 584 -13 22 -49 64 -80 91 -67 60 -62 67 51 65 110
-1 592 -50 689 -69 44 -8 89 -13 101 -10 32 8 73 43 90 77 17 32 19 30 -50 55
-18 6 -16 8 13 17 17 5 32 14 32 18 0 11 -62 11 -172 -1 -51 -5 -111 -5 -145
0 -135 20 -272 39 -328 45 l-60 7 30 16 c61 31 90 31 378 -9 408 -55 586 -74
598 -62 15 15 -73 89 -113 97 -85 16 -257 69 -252 77 3 5 44 9 92 9 98 0 439
17 519 26 65 7 117 40 121 76 3 22 -2 28 -20 32 -46 11 -205 35 -305 47 -77
10 -100 16 -92 25 5 6 20 14 32 17 12 3 110 31 217 63 l195 58 172 0 c162 1
174 2 194 22 34 35 12 60 -74 84 -39 12 -81 25 -92 30 -18 8 -17 9 7 9 15 1
30 5 33 11 4 6 -21 10 -67 11 -63 1 -69 3 -45 12 15 6 27 14 27 18 0 10 -106
18 -384 29 -138 6 -252 13 -255 15 -2 3 5 5 16 5 11 0 48 14 82 31 72 36 95
69 67 97 -35 35 -247 12 -442 -48 -104 -32 -141 -35 -84 -5 62 31 286 174 362
230 40 30 114 75 163 101 50 26 124 69 165 94 41 26 98 55 127 64 55 18 66 28
77 63 6 19 1 27 -29 44 l-36 21 25 43 c14 23 23 45 20 48 -4 3 -62 -14 -131
-39 -69 -24 -128 -44 -132 -44 -3 1 5 10 18 21 34 28 21 33 -41 14 -33 -10
-68 -13 -94 -9 -35 5 -45 2 -63 -17 -11 -12 -23 -20 -27 -17 -3 4 -27 0 -52
-8 -26 -7 -71 -14 -101 -14 -45 0 -78 -11 -190 -61 -75 -34 -171 -79 -213
-100 -42 -21 -79 -35 -82 -30 -4 5 30 32 73 60 44 28 83 55 86 61 12 19 -16
52 -40 48 -39 -8 -37 27 9 146 48 123 136 380 160 466 15 52 21 59 98 116 102
75 110 80 102 60 -14 -36 60 -3 99 44 28 33 51 100 39 111 -4 4 -72 -42 -152
-102 -80 -59 -148 -108 -152 -109 -3 0 0 24 8 53 20 74 18 103 -8 121 -35 25
-44 20 -90 -41 -23 -32 -112 -139 -198 -238 -86 -99 -177 -206 -203 -238 -46
-57 -47 -57 -47 -27 0 35 -3 37 -30 10 -23 -23 -49 -25 -95 -9 -47 17 -84 4
-100 -34 -16 -38 -5 -57 31 -57 27 0 28 -3 13 -31 -8 -16 -7 -25 5 -38 9 -10
16 -23 16 -30 0 -17 -71 -143 -77 -138 -2 3 -13 64 -23 135 -18 118 -18 135
-5 173 19 52 19 89 0 159 -26 95 -20 132 31 193 13 15 28 47 34 70 18 70 32
98 70 142 28 33 40 59 55 124 l18 82 56 33 c71 43 92 49 168 51 68 1 103 21
103 60 0 32 -14 40 -109 64 -109 27 -178 27 -242 0 -27 -12 -51 -20 -52 -18
-2 2 -15 36 -30 75 -30 79 -105 197 -163 261 -30 32 -55 46 -109 63 -38 13
-110 38 -160 57 -83 32 -96 35 -180 31 l-90 -3 -50 102 c-51 105 -85 149 -119
155 -27 4 -34 -35 -25 -147 4 -49 8 -134 8 -189 l1 -98 32 6 c54 11 59 20 53
110 l-5 81 19 -40 c11 -22 32 -66 47 -98 16 -35 36 -63 50 -69 30 -14 30 -19
-1 -48 -14 -13 -25 -34 -25 -47 0 -20 -11 -29 -55 -48 -50 -22 -55 -28 -55
-56 l0 -31 -42 36 c-50 43 -85 47 -94 10 -4 -14 -2 -36 4 -48 9 -20 6 -24 -19
-33 -40 -15 -45 -1 -19 53 22 45 80 94 112 94 9 0 29 11 45 24 l28 24 -27 12
c-34 16 -102 6 -159 -23 -32 -16 -51 -35 -69 -69 -14 -25 -34 -56 -44 -67 -19
-21 -19 -20 -43 51 -29 85 -95 189 -158 247 -52 48 -96 54 -139 20 -21 -17
-26 -29 -26 -65 0 -41 4 -48 59 -100 70 -65 83 -95 107 -236 15 -88 16 -109 5
-122 -7 -9 -20 -16 -29 -16 -9 0 -51 -9 -94 -21 -60 -16 -88 -30 -124 -62 -53
-47 -44 -49 -156 37 l-68 51 0 110 c0 86 -4 116 -16 134 -26 36 -34 10 -34
-109 l0 -106 -45 -13 c-51 -15 -52 -24 -12 -90 13 -22 20 -48 18 -79 l-1 -45
33 6 c33 5 36 3 101 -88 77 -108 105 -165 113 -236 7 -62 0 -69 -75 -69 -134
0 -118 -68 25 -105 86 -23 94 -30 47 -45 -33 -11 -51 -10 -136 11 l-99 23 -22
-22 -22 -23 23 -39 c12 -21 22 -48 22 -60 0 -15 12 -26 41 -39 l40 -18 -102
-5 c-84 -4 -105 -8 -116 -23 -7 -11 -13 -22 -13 -27 0 -19 51 -31 130 -30 134
2 196 -12 322 -73 132 -65 317 -117 345 -99 19 12 22 45 10 107 -7 32 -6 37
11 37 11 0 25 6 31 14 22 26 0 66 -65 120 l-63 51 29 29 29 29 110 -37 c62
-21 119 -35 129 -32 12 4 24 23 32 51 l13 45 49 0 c36 0 49 -3 45 -12 -3 -7
-8 -20 -12 -29 -5 -13 4 -20 42 -33 38 -13 51 -23 60 -47 13 -33 23 -34 105
-14 27 7 27 7 17 -29 -8 -29 -7 -41 6 -58 27 -40 18 -80 -54 -225 -75 -153
-105 -182 -131 -133 -12 23 -3 103 27 257 l17 82 -25 27 c-34 37 -82 56 -112
45 -26 -10 -75 -80 -106 -153 -11 -26 -31 -54 -45 -64 -43 -27 -30 -77 31
-128 20 -17 35 -40 39 -62 6 -32 9 -35 37 -32 25 2 34 -3 50 -30 10 -18 16
-40 13 -49 -6 -14 -10 -13 -34 9 -15 14 -33 23 -41 20 -9 -3 -35 18 -65 53
-48 54 -54 57 -84 50 -42 -9 -42 -35 -2 -95 17 -26 57 -127 95 -240 74 -226
86 -300 88 -552 1 -91 5 -170 9 -174 4 -4 21 -7 38 -6 l30 1 -45 -60 -46 -59
50 -50 49 -51 94 7 93 6 -28 -24 -27 -23 61 -70 c93 -106 141 -173 134 -185
-12 -19 -25 -10 -42 28 -10 20 -25 37 -33 37 -12 0 -16 -20 -18 -105 l-2 -105
32 -19 c32 -18 32 -19 12 -28 -33 -15 -84 14 -116 67 -28 46 -44 52 -95 39
-31 -8 -38 -53 -18 -120 17 -60 16 -74 -5 -49 -12 14 -16 13 -40 -10 -24 -23
-30 -24 -58 -14 -18 6 -38 9 -45 6 -17 -6 -57 -124 -63 -184 -5 -48 -28 -96
-63 -127 -15 -14 -24 -15 -40 -6 -15 8 -27 8 -41 0 -12 -6 -29 -8 -40 -5 -30
10 -100 94 -131 159 -30 64 -56 162 -46 172 4 4 67 10 141 15 147 9 175 17
264 77 90 62 122 103 122 158 0 61 -39 174 -112 324 -33 69 -67 143 -75 165
-8 22 -64 235 -123 473 -79 317 -116 451 -140 497 -82 161 -237 289 -415 340
-110 32 -282 -2 -396 -78 l-54 -36 -13 25 c-11 21 -18 25 -40 19 -42 -10 -62
-36 -72 -98 -5 -31 -14 -65 -19 -76 -17 -32 -13 -50 14 -57 14 -3 25 -8 25
-10 0 -2 -9 -28 -21 -59 -23 -61 -39 -64 -39 -5 0 21 -9 67 -20 102 -11 36
-29 109 -40 164 -11 54 -31 120 -45 145 -13 25 -31 71 -40 103 -9 31 -29 85
-45 119 -15 34 -38 107 -49 162 -36 166 -70 293 -117 436 -47 145 -67 179 -78
134 -5 -18 13 -91 54 -228 33 -111 76 -273 95 -359 19 -87 46 -191 59 -232
l23 -74 -101 90 c-102 91 -289 234 -559 428 -81 58 -147 108 -147 111 0 11
136 69 162 69 22 0 55 -19 125 -70 11 -8 31 -31 44 -50 38 -55 225 -264 269
-299 22 -18 49 -49 59 -69 20 -40 58 -79 67 -70 3 4 -4 25 -17 49 -19 38 -20
47 -9 77 11 32 9 38 -43 125 -111 188 -188 334 -223 425 -19 50 -31 69 -38 62
-14 -14 24 -129 86 -260 28 -58 66 -139 84 -180 l34 -75 -182 185 -183 185 64
50 c76 59 62 71 -29 25 -35 -18 -73 -30 -88 -28 -24 3 -27 7 -25 38 2 35 1 35
-35 32 -31 -3 -48 5 -109 48 -40 28 -73 54 -73 58 0 4 90 53 200 110 l200 103
0 -80 c0 -64 3 -81 15 -81 11 0 15 18 17 82 l3 82 85 23 c46 12 87 19 91 15 4
-4 33 -77 65 -162 86 -233 221 -710 241 -854 13 -88 22 -124 35 -135 13 -11
18 -30 18 -63 0 -43 2 -48 23 -48 39 0 57 22 66 80 14 84 35 139 132 342 48
103 117 265 152 360 80 216 80 214 70 233 -17 29 -39 -14 -99 -195 -43 -131
-83 -224 -157 -370 -54 -107 -108 -210 -119 -229 -19 -30 -22 -32 -32 -15 -16
29 -12 181 8 269 10 44 33 121 51 170 45 123 48 135 36 135 -16 0 -56 -96 -98
-232 -20 -65 -40 -118 -43 -118 -4 0 -49 125 -100 277 -88 261 -92 279 -82
318 9 34 7 54 -15 138 -28 106 -45 120 -53 42 l-5 -48 -38 86 c-42 93 -82 142
-97 118 -4 -8 -6 -19 -4 -26 7 -18 -13 -30 -91 -55 -109 -36 -238 -94 -375
-170 -70 -39 -139 -70 -154 -70 -33 0 -86 26 -86 43 0 7 66 127 147 267 124
217 302 561 357 694 14 34 19 37 48 34 25 -2 34 -8 36 -25 3 -22 54 -73 73
-73 20 0 7 -18 -29 -38 -21 -11 -54 -34 -74 -50 l-37 -29 36 -35 36 -36 -66
-44 c-60 -39 -84 -68 -69 -82 14 -15 60 -3 92 23 34 29 34 29 45 8 33 -66 166
-109 346 -111 l107 -1 -18 -25 c-64 -88 -121 -114 -195 -90 -43 14 -37 30 12
30 32 0 35 2 29 23 -3 12 -6 28 -6 35 0 8 -19 12 -62 12 -44 0 -89 9 -148 30
-72 25 -87 27 -99 16 -16 -17 -7 -36 18 -36 10 0 53 -29 97 -65 43 -36 130
-102 193 -148 63 -45 119 -89 124 -98 8 -13 3 -28 -21 -64 -17 -25 -28 -53
-26 -60 7 -18 214 -105 249 -105 26 0 27 2 22 33 -4 22 7 7 34 -48 21 -44 39
-94 39 -112 0 -41 21 -44 55 -7 37 39 33 144 -5 144 -33 0 -55 122 -80 435
-18 227 -45 298 -157 418 -40 43 -73 84 -73 92 0 8 40 97 89 197 127 263 132
281 72 260 -34 -12 -52 -31 -178 -183 -48 -59 -95 -111 -103 -117 -13 -8 -33
10 -102 92 -101 118 -238 304 -238 324 0 18 -71 102 -81 96 -11 -7 -37 36 -40
66 -1 14 -1 42 -1 63 2 32 5 37 26 37 34 0 52 25 38 54 -6 14 -20 27 -31 31
-25 8 -35 42 -23 76 19 48 -54 206 -107 234 -56 28 -49 57 43 169 30 37 67 76
81 88 31 24 58 75 51 94 -13 35 -52 13 -141 -81 -49 -52 -97 -95 -105 -95 -8
0 -51 38 -95 84 -44 47 -94 91 -111 100 -17 8 -34 21 -37 29 -8 22 11 106 38
165 14 30 25 70 25 88 0 30 -3 34 -28 34 -21 0 -33 -9 -52 -40z m-89 -297 c-7
-25 -9 -54 -5 -66 6 -20 6 -21 -17 -5 -35 23 -36 62 -2 111 33 47 42 32 24
-40z m-947 -10 c-18 -60 -18 -105 2 -168 20 -63 14 -93 -27 -140 -42 -48 -53
-37 -45 44 8 75 66 311 77 311 4 0 1 -21 -7 -47z m786 -21 c50 -36 146 -76
179 -75 18 1 46 11 62 22 51 38 72 29 139 -58 33 -44 60 -87 60 -97 0 -9 -27
-47 -61 -85 -60 -68 -62 -69 -110 -69 -37 0 -49 4 -49 15 0 9 9 15 23 15 12 0
33 7 46 16 18 13 22 23 17 45 l-5 29 54 0 c48 0 55 3 55 19 0 27 -80 95 -128
109 -55 17 -72 15 -72 -7 0 -40 -33 -61 -148 -95 -62 -18 -115 -36 -118 -39
-5 -5 28 -107 43 -130 3 -5 25 10 49 34 l44 43 0 -70 c0 -58 -3 -71 -20 -82
-34 -21 -25 -50 16 -58 56 -10 22 -22 -71 -24 -44 -1 -84 -2 -88 -1 -5 1 8 30
28 66 43 77 28 86 -28 17 -75 -93 -62 -119 67 -135 67 -8 99 -7 141 3 42 10
64 11 92 2 20 -6 40 -9 45 -6 16 10 57 -25 78 -66 25 -49 14 -50 -40 -5 -40
34 -83 45 -95 26 -3 -6 22 -45 55 -88 33 -43 60 -81 60 -85 0 -5 -9 -8 -20 -8
-26 0 -25 -8 8 -61 30 -47 81 -94 119 -112 30 -14 24 -31 -12 -35 -22 -3 -38
7 -81 49 -50 49 -53 56 -60 116 -6 59 -8 63 -28 57 -65 -20 -61 -53 19 -159
36 -48 65 -90 65 -93 0 -18 53 -82 68 -82 9 0 47 -30 83 -66 l67 -67 -133
-146 c-162 -177 -263 -301 -357 -441 -85 -128 -202 -360 -188 -374 18 -18 51
27 117 159 82 164 143 257 272 417 107 133 123 148 165 148 25 0 21 -7 -58
-112 -120 -160 -258 -380 -246 -392 5 -5 11 -8 13 -5 2 2 61 90 132 194 163
242 174 256 246 306 32 23 59 47 59 54 0 17 -29 41 -65 55 l-30 12 48 44 c70
63 101 58 102 -16 0 -31 5 -37 42 -55 l42 -20 -43 -105 c-55 -136 -122 -269
-151 -300 -13 -14 -38 -53 -55 -87 -17 -35 -36 -63 -42 -63 -27 0 -48 -34 -48
-75 0 -33 -4 -44 -19 -48 -11 -3 -22 -17 -26 -35 -4 -19 -14 -32 -28 -36 -15
-4 -63 -68 -147 -196 -69 -104 -128 -190 -133 -190 -4 0 11 36 34 81 22 45 38
84 35 87 -10 9 -31 -25 -93 -148 -31 -63 -83 -153 -115 -200 -32 -47 -65 -106
-74 -132 -29 -89 -70 -82 -46 9 14 52 15 63 3 63 -5 0 -17 -23 -26 -51 -12
-35 -20 -47 -25 -38 -4 8 -22 92 -41 187 -28 150 -35 173 -50 169 -36 -10
-107 174 -116 301 -6 86 -16 95 -31 27 l-8 -40 -42 63 c-37 54 -62 76 -62 56
0 -4 29 -66 65 -138 53 -107 73 -162 110 -303 25 -94 56 -202 70 -239 27 -72
32 -133 13 -152 -17 -17 -103 -15 -217 4 -97 17 -118 16 -356 -12 -35 -5 -19
7 120 90 l160 96 17 -38 c18 -41 64 -89 75 -79 3 4 -6 35 -21 70 l-27 64 36
36 c19 19 35 40 35 46 0 17 -30 13 -57 -9 -26 -20 -53 -27 -53 -12 0 4 21 20
47 35 50 31 47 31 81 -28 16 -29 17 -29 20 -7 4 24 -29 130 -53 172 l-14 25
-1 -36 c0 -41 -28 -82 -70 -104 -32 -16 -31 -17 -74 58 -41 72 -64 62 -26 -13
43 -85 45 -83 -220 -246 -183 -112 -233 -134 -309 -134 -25 0 -84 -7 -131 -15
-92 -16 -255 -20 -246 -7 13 21 328 156 506 217 107 37 205 76 217 87 16 15
29 18 53 13 39 -9 101 13 76 27 -17 10 -167 -27 -331 -80 -111 -37 -408 -163
-571 -243 -113 -55 -163 -69 -190 -51 -13 8 117 198 326 477 168 224 316 400
472 561 70 72 125 134 121 138 -3 3 -18 6 -33 6 -21 0 -52 -29 -163 -153 -180
-201 -536 -646 -630 -786 -80 -121 -87 -122 -87 -24 0 32 7 50 29 75 33 38
156 219 163 239 3 8 -1 29 -9 47 -15 37 -16 32 53 267 55 183 102 444 113 625
9 156 16 175 107 287 33 39 74 93 91 120 32 47 33 48 33 18 0 -50 -19 -101
-60 -163 -22 -33 -40 -65 -40 -73 0 -7 -5 -27 -12 -45 -10 -27 -9 -37 6 -58
16 -26 17 -26 45 -10 28 16 30 16 60 -5 l30 -22 -70 -82 c-72 -82 -140 -177
-152 -209 -3 -10 -4 -25 0 -34 11 -30 45 -32 123 -8 41 13 78 24 83 24 4 0 0
-16 -8 -36 -23 -56 -19 -58 33 -17 54 44 48 35 -71 -101 -69 -79 -84 -102 -70
-105 12 -2 33 14 63 49 25 29 74 84 109 123 59 66 62 72 45 84 -18 13 -17 16
16 43 64 53 141 93 192 101 29 5 145 11 260 15 l208 7 9 -24 9 -24 5 25 c3 14
9 47 12 74 l7 49 -54 -7 c-29 -4 -78 -13 -108 -21 -77 -20 -163 -29 -196 -21
-25 7 -14 14 101 62 119 50 216 84 237 84 5 0 6 -15 3 -34 -9 -43 11 -58 25
-19 22 63 35 77 75 85 22 5 53 19 70 32 29 23 29 24 12 50 -16 23 -24 26 -78
26 l-60 0 20 27 c31 39 11 64 -70 85 -46 11 -56 16 -34 17 17 1 67 10 113 21
46 11 94 20 108 20 l24 0 0 -132 c0 -121 9 -173 25 -156 3 3 15 66 26 139 24
158 27 170 38 149 5 -8 14 -39 21 -68 10 -44 15 -51 26 -41 12 10 13 1 8 -62
-14 -158 -15 -160 -64 -197 l-45 -35 -3 42 c-2 28 -8 41 -18 41 -8 0 -14 -3
-14 -7 -3 -96 -28 -295 -59 -468 -22 -121 -36 -224 -31 -229 14 -14 41 40 50
101 5 32 16 89 24 128 8 38 20 121 27 185 15 154 30 195 80 220 l39 20 20 -32
c11 -18 22 -46 25 -63 6 -33 -28 -172 -66 -272 -25 -66 -23 -79 13 -70 29 8
59 56 58 94 -2 57 30 285 55 388 30 126 30 142 9 211 -10 28 -14 58 -11 67 4
11 37 16 151 21 l145 8 60 -33 c33 -18 63 -30 66 -27 16 16 -22 50 -102 95
-87 47 -89 48 -198 53 l-110 5 0 30 c0 25 6 33 38 48 41 19 47 42 19 77 -13
16 -34 23 -84 30 -66 8 -103 26 -141 68 -17 19 -17 22 4 77 12 31 32 66 45 78
33 28 30 57 -9 95 -30 29 -34 31 -54 17 -22 -15 -43 -82 -43 -139 0 -57 -35
-87 -157 -136 -131 -51 -167 -57 -213 -33 -30 16 -80 73 -80 93 0 4 65 24 144
45 124 32 145 40 148 58 2 12 28 41 58 65 59 48 81 78 73 99 -3 7 7 33 21 57
14 25 26 54 26 67 0 24 63 89 86 89 8 0 12 -4 9 -10 -7 -12 34 -13 53 -2 23
15 32 68 15 92 -14 20 -22 22 -73 17 -80 -9 -106 -21 -125 -60 -10 -22 -30
-41 -59 -54 -39 -19 -46 -20 -65 -7 -30 21 -27 59 7 82 46 33 123 68 234 107
115 40 123 45 133 88 7 26 5 27 -29 27 -20 0 -83 -18 -141 -40 -109 -41 -125
-46 -125 -32 0 4 19 13 43 19 24 7 64 31 92 56 28 25 59 47 70 50 34 10 109
-2 135 -21z m-586 -185 c8 -13 7 -20 -4 -27 -11 -7 -17 -4 -22 8 -17 42 3 56
26 19z m-50 -146 c20 -47 36 -86 36 -88 0 -2 -26 -3 -58 -3 -77 0 -97 -14 -88
-66 25 -150 18 -194 -30 -194 -14 0 -37 -14 -56 -36 -21 -22 -52 -42 -87 -53
l-54 -18 22 -22 c20 -20 29 -22 71 -16 42 6 50 4 64 -16 9 -13 16 -28 16 -33
0 -14 -102 4 -138 25 -39 22 -56 24 -71 6 -19 -23 15 -41 158 -86 73 -23 167
-57 209 -76 l76 -33 -75 -22 c-41 -12 -83 -24 -93 -27 -10 -3 -36 1 -58 8 -33
11 -43 10 -73 -4 -19 -9 -35 -20 -35 -24 0 -5 28 -28 62 -52 57 -42 59 -45 42
-59 -13 -10 -35 -12 -73 -8 -67 6 -77 15 -58 52 13 25 12 31 -5 61 -11 18 -24
35 -28 38 -15 9 -58 -13 -100 -51 -22 -20 -43 -34 -46 -31 -3 3 6 16 20 28 30
26 32 36 9 61 -14 16 -15 23 -3 57 11 35 7 111 -6 111 -17 0 -66 -35 -88 -62
-14 -18 -26 -28 -26 -21 0 6 4 14 9 17 5 3 26 52 46 108 30 81 54 125 114 207
42 58 79 109 84 115 5 8 10 7 15 -2 6 -9 21 7 52 55 24 37 57 82 73 100 29 31
31 32 59 17 17 -9 32 -14 34 -11 3 2 9 30 14 61 8 52 18 82 25 74 1 -2 19 -41
39 -87z m139 5 l46 -53 -23 -22 -24 -23 -29 44 c-42 61 -55 87 -48 98 13 20
34 8 78 -44z m910 -18 c-12 -20 -28 -34 -44 -36 -22 -3 -21 -1 15 37 46 47 57
46 29 -1z m142 -41 c31 -31 65 -110 53 -122 -3 -3 -47 13 -97 36 l-92 42 38
39 c20 21 43 38 51 38 8 0 29 -15 47 -33z m-365 -32 c0 -28 -25 -44 -42 -27
-7 7 -6 17 1 31 16 30 41 27 41 -4z m-772 -156 c34 -11 62 -23 62 -25 0 -5
-121 -66 -125 -62 -7 8 -13 108 -6 108 4 0 35 -9 69 -21z m1172 -170 l0 -110
-31 21 c-28 20 -29 24 -15 39 23 25 20 41 -14 94 -16 26 -30 49 -30 52 0 4 36
12 68 14 22 1 22 -1 22 -110z m-810 -175 c49 -20 90 -40 90 -44 0 -14 -44 -20
-151 -20 -112 0 -199 8 -199 19 0 8 140 80 157 80 7 1 53 -15 103 -35z m1000
-148 c19 -27 75 -100 123 -163 49 -63 87 -116 85 -119 -3 -2 -42 11 -89 30
-82 34 -83 35 -55 45 19 8 26 16 22 27 -3 9 -6 19 -6 24 0 24 -60 73 -135 110
-47 23 -85 46 -85 50 0 14 64 50 85 48 11 -2 36 -25 55 -52z m-890 9 c-15 -18
-63 -20 -93 -2 -20 11 -16 12 38 17 70 6 72 5 55 -15z m-325 -29 c19 -8 35
-17 35 -20 0 -15 -66 -36 -112 -36 l-53 1 33 14 c19 8 36 24 39 35 6 24 13 24
58 6z m-417 -223 l107 -27 -48 -7 c-49 -8 -90 -34 -84 -53 2 -6 45 -13 103
-16 l99 -5 -78 -22 c-89 -25 -149 -52 -155 -70 -6 -20 94 -16 190 7 54 13 86
16 92 10 7 -7 -1 -10 -22 -10 -38 0 -95 -19 -229 -76 -94 -40 -183 -58 -183
-37 0 5 23 29 50 54 35 32 49 51 44 63 -3 9 -11 16 -16 16 -6 0 -45 -33 -87
-72 -75 -70 -254 -183 -273 -172 -12 7 -9 46 5 71 10 18 178 205 304 339 17
19 41 34 52 34 12 0 70 -12 129 -27z m2150 0 c-39 -85 -190 -383 -200 -396 -9
-13 -30 -19 -73 -21 -37 -2 -82 -13 -119 -30 l-58 -26 86 91 c47 49 86 93 86
98 0 4 29 31 65 59 48 39 70 65 86 102 20 47 96 130 120 130 6 0 9 -3 7 -7z
m-1798 -42 c0 -8 -79 -21 -132 -21 -50 0 -29 19 25 23 28 2 64 4 80 5 15 1 27
-2 27 -7z m990 -90 c0 -8 -53 -32 -69 -31 -3 1 5 10 18 20 24 21 51 26 51 11z
m-2089 -256 c-13 -133 -79 -413 -137 -587 l-46 -138 -48 0 -49 0 -3 53 c-3 51
1 132 21 412 10 141 21 175 72 221 12 10 39 46 62 79 22 33 60 82 86 108 l46
48 3 -47 c2 -26 -1 -93 -7 -149z m2847 51 c38 -20 78 -65 96 -108 26 -61 19
-75 -15 -29 -30 42 -79 71 -118 71 -27 0 -33 13 -20 49 12 35 19 37 57 17z
m-2506 -116 c-12 -10 -52 -28 -88 -40 -55 -19 -68 -20 -75 -9 -6 11 1 16 29
21 20 3 62 18 92 31 60 27 78 26 42 -3z m2488 -35 c0 -2 -13 -11 -30 -20 -29
-15 -30 -15 -30 5 0 16 7 20 30 20 17 0 30 -2 30 -5z m40 -41 c0 -8 -9 -14
-20 -14 -21 0 -24 8 -14 34 5 13 9 14 20 5 8 -6 14 -18 14 -25z m133 -255 c-9
-9 -116 11 -129 23 -2 2 19 21 46 41 28 21 56 47 63 58 11 17 13 12 21 -46 5
-43 5 -70 -1 -76z m1928 105 c57 -20 124 -46 149 -59 74 -37 134 -115 170
-220 11 -32 40 -96 65 -143 35 -66 45 -95 45 -132 0 -55 -10 -110 -19 -110 -4
0 -13 28 -20 63 -33 167 -58 214 -132 253 -45 23 -120 34 -165 24 -41 -9 -104
-67 -104 -95 0 -22 44 -19 89 7 37 21 39 21 65 4 30 -19 63 -67 73 -105 7 -29
-40 -183 -63 -202 -32 -26 -36 -48 -18 -94 20 -53 14 -84 -25 -124 -15 -16
-47 -67 -69 -114 -32 -66 -50 -89 -78 -106 -33 -20 -35 -24 -30 -59 5 -29 0
-51 -23 -98 -47 -98 -55 -94 -47 27 10 140 11 143 57 163 38 17 69 58 69 91 0
9 9 33 20 54 10 21 36 94 56 162 31 107 35 132 30 186 -10 101 -22 112 -75 74
-27 -19 -27 -19 -58 0 -32 20 -73 90 -73 122 0 10 12 22 27 28 36 13 43 27 32
56 -24 65 3 112 68 118 54 5 63 11 63 40 0 33 -39 76 -101 110 -49 26 -56 27
-96 17 -62 -17 -63 -16 -63 31 0 79 29 84 181 31z m-1981 -196 c0 -7 -11 -26
-24 -42 l-23 -30 -41 35 c-23 19 -42 37 -42 42 0 4 29 7 65 7 45 0 65 -4 65
-12z m-1111 -148 c-29 -49 -57 -90 -62 -90 -5 0 -7 4 -5 8 8 21 113 179 117
176 2 -2 -20 -44 -50 -94z m1197 -57 c-1 0 -21 17 -45 38 l-44 40 39 40 39 40
6 -78 c3 -43 6 -79 5 -80z m1334 -54 c0 -16 -46 -63 -95 -96 -24 -16 -36 -18
-58 -11 l-27 10 25 30 c15 18 25 42 25 62 0 40 14 59 65 84 l40 20 12 -42 c7
-22 13 -48 13 -57z m1162 41 c-23 -21 -43 -30 -67 -30 -49 0 -44 12 18 37 73
30 88 28 49 -7z m-812 -30 c11 -11 33 -50 50 -86 18 -40 47 -83 70 -104 22
-20 40 -45 40 -54 0 -9 -12 -40 -26 -68 -29 -56 -24 -90 15 -103 17 -5 19 -12
14 -38 -8 -44 -28 -93 -55 -129 -20 -28 -22 -29 -29 -12 -4 10 -8 49 -8 85 -1
105 -51 123 -78 29 -7 -24 -33 -69 -57 -100 -25 -32 -63 -89 -84 -129 -36 -66
-52 -79 -52 -42 0 9 -13 27 -30 41 -16 14 -36 41 -44 61 l-15 37 33 6 c28 5
37 14 50 47 9 22 23 42 31 45 26 10 26 41 2 102 l-25 59 71 7 c119 11 150 50
103 130 -18 31 -39 50 -73 66 l-48 23 28 9 c32 11 42 42 28 81 -9 24 -7 28 17
41 36 20 48 20 72 -4z m-2967 -53 c-38 -64 -156 -227 -164 -227 -8 0 32 67
125 207 16 24 32 40 37 37 5 -3 6 -11 2 -17z m84 -32 c20 -8 34 -17 32 -19
-14 -12 -150 -106 -154 -106 -2 0 12 32 31 70 20 39 40 70 45 70 5 0 26 -7 46
-15z m-2083 -40 c-8 -20 -35 -65 -59 -101 -59 -86 -79 -157 -71 -251 3 -40 2
-73 -3 -73 -14 0 -22 30 -28 107 -7 86 10 141 64 205 19 23 44 60 55 82 24 48
37 66 49 66 4 0 1 -16 -7 -35z m2248 -54 c64 -40 93 -64 93 -77 0 -12 -23 -34
-65 -61 -36 -23 -77 -51 -92 -62 -40 -32 -70 -27 -111 19 -19 22 -39 40 -44
40 -4 0 -8 -19 -8 -42 0 -36 -5 -45 -32 -64 -29 -19 -109 -48 -251 -88 -49
-14 -53 -14 -59 1 -9 23 94 116 266 240 74 54 151 110 170 125 20 15 37 27 38
27 1 1 44 -25 95 -58z m2161 -7 c34 -32 65 -60 69 -63 4 -3 -35 -6 -86 -6 -65
0 -98 4 -110 14 -15 13 -20 12 -39 -7 -21 -22 -21 -22 -3 -69 31 -82 33 -78
-27 -79 l-55 -1 -37 65 c-38 63 -38 64 -22 98 21 42 67 71 127 80 25 3 59 10
75 14 17 5 33 9 38 9 4 1 35 -24 70 -55z m1077 -49 c0 -24 -5 -56 -11 -72
l-11 -28 -15 23 c-20 29 -31 28 -66 -5 l-30 -28 6 38 c3 20 25 64 49 98 l42
61 18 -22 c11 -14 18 -39 18 -65z m-1400 -191 c28 -42 50 -83 50 -90 0 -7 35
-34 78 -59 l77 -47 -49 6 c-27 3 -79 6 -115 6 -59 1 -64 2 -47 15 18 14 18 16
-3 72 -40 104 -52 126 -114 213 -33 47 -65 92 -70 100 -5 8 25 -20 67 -63 42
-42 99 -111 126 -153z m670 196 c32 -16 62 -34 65 -40 6 -9 -130 53 -144 66
-15 14 29 -1 79 -26z m-2352 -72 c-3 -7 -20 -18 -39 -25 l-34 -13 30 25 c32
27 49 32 43 13z m-1268 -35 c0 -5 -42 -33 -93 -63 -50 -30 -125 -76 -164 -102
-40 -26 -85 -50 -101 -54 -15 -3 56 46 158 110 182 113 200 124 200 109z
m4297 -165 c-52 -93 -54 -116 -21 -214 27 -83 27 -84 9 -123 -20 -46 -16 -142
12 -233 9 -30 12 -67 9 -89 -8 -50 -55 -151 -121 -265 -30 -51 -62 -118 -70
-150 -8 -31 -16 -59 -19 -61 -2 -2 -14 12 -26 32 l-23 37 -64 -64 -64 -63 16
50 c9 28 23 85 31 128 14 71 14 80 0 103 -19 28 -46 31 -80 9 -23 -15 -24 -15
-33 12 -8 21 -5 43 12 93 41 118 66 180 74 180 4 0 16 -18 26 -40 26 -58 46
-72 96 -68 37 3 46 8 62 36 27 46 27 119 -1 164 -43 69 -29 136 88 411 56 133
84 177 113 177 5 0 -7 -28 -26 -62z m-3036 -80 c202 -152 459 -356 514 -410
54 -51 90 -104 78 -111 -8 -5 -343 257 -456 356 -36 32 -67 68 -69 79 -3 23
-19 34 -58 42 -54 11 -200 129 -200 160 0 16 3 16 31 -1 17 -10 89 -62 160
-115z m3809 68 c-14 -45 -90 -129 -130 -146 -17 -7 -32 -11 -35 -9 -2 2 35 48
83 101 47 54 88 95 90 93 2 -2 -1 -20 -8 -39z m-4106 22 c-14 -23 -176 -208
-182 -208 -15 0 -192 74 -192 80 0 6 353 138 373 139 5 1 5 -5 1 -11z m137
-80 c49 -40 89 -73 89 -75 0 -2 -70 -3 -156 -3 l-155 0 19 28 c27 37 102 122
109 122 3 0 45 -32 94 -72z m-436 34 c-14 -12 -166 -54 -172 -48 -9 8 38 26
103 41 77 16 80 17 69 7z m535 -152 c0 -5 -19 -14 -42 -20 -24 -6 -56 -15 -73
-20 -16 -5 -56 -16 -89 -25 -41 -11 -55 -20 -48 -27 7 -7 45 -2 124 17 150 36
196 36 245 2 62 -44 178 -153 167 -159 -14 -7 -508 83 -515 94 -4 7 -29 8 -65
3 l-59 -7 23 24 c27 30 28 38 3 38 -10 0 -29 9 -42 19 -20 16 -22 23 -13 38 9
15 29 19 120 24 194 9 264 9 264 -1z m3766 -72 c-115 -252 -235 -463 -355
-623 -78 -103 -242 -274 -321 -335 l-45 -35 20 30 c10 17 47 75 81 130 254
409 287 456 334 478 25 12 47 22 48 23 2 1 -6 24 -17 49 l-21 47 44 67 c25 36
66 87 93 112 50 49 153 129 165 129 4 0 -8 -33 -26 -72z m-4007 -151 l18 22
199 -43 c380 -83 469 -114 624 -220 86 -59 113 -67 128 -40 14 25 34 7 27 -25
-4 -19 0 -32 13 -44 17 -15 19 -28 14 -87 -4 -67 -4 -69 20 -75 13 -3 30 -5
38 -3 16 4 66 -152 56 -177 -4 -11 -16 -15 -38 -13 -29 3 -40 14 -96 98 -132
201 -229 266 -434 291 -51 6 -122 20 -157 30 -35 10 -86 19 -115 19 -40 0 -60
6 -96 31 -72 49 -84 51 -141 29 -67 -27 -83 -25 -113 11 -24 28 -26 37 -26
132 l0 101 31 -30 31 -29 17 22z m-603 -11 c72 -7 129 -17 139 -26 33 -28 67
-101 75 -163 7 -59 6 -65 -25 -115 l-33 -53 -17 50 c-9 28 -18 51 -19 51 -2 0
-15 -17 -29 -37 l-26 -38 -268 0 c-147 1 -318 5 -380 9 -110 9 -111 9 -136
-16 -22 -22 -26 -37 -32 -119 -17 -243 -28 -736 -26 -1154 4 -588 13 -562
-194 -572 -88 -4 -104 -2 -132 16 -44 28 -56 75 -37 149 8 31 46 152 85 269
79 240 94 336 83 528 -4 75 -1 154 10 245 9 74 16 204 16 288 0 256 -4 259
-374 308 -112 14 -122 14 -152 -2 -31 -17 -35 -17 -108 6 l-77 25 3 110 3 110
55 27 c63 31 95 36 515 74 240 21 323 25 485 20 142 -4 216 -2 270 8 95 17
174 18 326 2z m4504 -198 c-11 -24 -20 -58 -20 -75 0 -47 -46 -137 -89 -176
-50 -45 -136 -103 -125 -85 25 43 247 378 250 378 1 0 -6 -19 -16 -42z m-1280
-48 c0 -44 -2 -80 -4 -80 -3 0 -17 5 -32 10 -23 9 -26 15 -21 43 7 44 35 107
47 107 6 0 10 -34 10 -80z m2009 -31 c-18 -11 -79 -12 -79 -1 0 15 8 18 51 14
28 -3 37 -7 28 -13z m-181 -38 c-91 -30 -115 -34 -102 -21 18 18 85 39 124 39
32 0 30 -2 -22 -18z m417 -2 c-80 -54 -231 -104 -375 -124 -76 -10 -448 -123
-513 -156 -34 -18 -97 -54 -139 -81 -43 -27 -82 -48 -88 -46 -23 7 187 144
250 163 14 4 59 24 100 45 55 28 114 46 220 69 127 27 507 134 519 146 2 3 16
5 30 5 l26 0 -30 -21z m-10220 -49 c10 -11 13 -20 7 -20 -6 0 -16 9 -22 20 -6
11 -9 20 -7 20 2 0 12 -9 22 -20z m145 -5 c0 -14 -72 -146 -77 -142 -10 11 48
147 63 147 8 0 14 -2 14 -5z m9631 -180 c-190 -98 -283 -156 -306 -191 -9 -14
-35 -33 -58 -44 -212 -97 -267 -114 -282 -90 -10 16 -32 12 -62 -14 -15 -13
-39 -27 -53 -31 -26 -8 -69 -35 -135 -84 -22 -17 -71 -42 -109 -56 l-69 -26
25 33 c14 18 38 40 53 48 16 8 123 78 239 156 116 78 249 159 296 182 120 58
432 173 510 188 123 23 117 15 -49 -71z m-4046 -80 c109 -21 201 -46 232 -61
102 -49 216 -209 243 -340 7 -33 10 -105 8 -168 -4 -124 -19 -163 -84 -236
-49 -54 -82 -73 -231 -131 -70 -27 -136 -59 -145 -70 -16 -19 -16 -24 -3 -56
27 -63 86 -153 141 -213 30 -32 61 -75 70 -96 15 -36 15 -39 -3 -52 -25 -19
-143 -11 -178 12 -15 10 -64 75 -110 145 -72 109 -92 131 -132 153 -60 32 -97
41 -134 33 -44 -10 -56 -62 -41 -183 25 -202 15 -213 -133 -142 -46 22 -89 40
-94 40 -13 0 -14 70 -2 122 5 20 6 39 3 42 -10 10 -19 686 -14 966 3 143 21
187 90 227 106 63 234 65 517 8z m-5548 -28 c20 -37 39 -96 48 -147 9 -47 18
-93 20 -102 10 -52 -39 6 -99 115 -25 45 -42 65 -48 59 -6 -6 14 -56 57 -142
36 -72 62 -129 57 -126 -17 10 -179 200 -191 224 -14 27 -8 53 18 76 18 17 21
17 45 1 31 -21 34 -8 6 28 -11 14 -20 28 -20 31 0 6 61 46 70 46 3 0 20 -28
37 -63z m2305 -7 c206 -69 268 -115 378 -282 129 -197 162 -358 114 -563 -7
-33 -14 -78 -14 -100 0 -22 -7 -50 -15 -62 -8 -11 -28 -59 -45 -106 -65 -177
-186 -325 -346 -421 -95 -57 -99 -58 -198 -67 -171 -15 -401 -12 -491 6 -223
46 -393 172 -486 360 -49 100 -70 198 -72 345 -1 109 0 120 32 198 18 45 43
95 57 111 13 16 24 41 24 55 0 34 70 145 117 186 19 17 60 43 91 59 32 15 110
67 176 115 190 143 247 171 384 196 81 15 194 3 294 -30z m4717 -37 c31 -23
86 -124 117 -213 12 -36 43 -160 69 -275 53 -237 113 -424 191 -602 30 -67 54
-126 54 -132 0 -25 -99 -46 -120 -25 -5 5 -42 85 -83 177 -42 93 -85 180 -98
193 -27 29 -58 39 -179 59 -134 21 -217 20 -257 -5 -39 -23 -45 -35 -117 -220
-79 -201 -83 -207 -131 -236 -50 -29 -69 -24 -94 23 l-18 35 63 192 c35 105
80 241 100 301 20 61 49 155 64 210 15 55 44 151 64 212 20 62 36 123 36 137
0 26 36 149 52 180 9 17 20 18 135 13 102 -4 130 -9 152 -24z m996 -113 c-8
-30 -48 -124 -89 -210 -41 -85 -78 -165 -81 -178 -12 -41 -23 -13 -29 75 -4
49 -10 96 -12 106 -5 14 1 17 38 17 24 0 51 6 60 13 9 6 40 63 69 125 28 62
53 111 55 109 2 -2 -3 -27 -11 -57z m243 -33 c-43 -57 -127 -225 -153 -305
-16 -50 -38 -94 -61 -120 -23 -27 -36 -53 -38 -77 -3 -43 -11 -51 -100 -100
-51 -28 -67 -33 -63 -21 4 10 14 47 22 84 19 80 47 131 151 277 43 61 101 143
129 183 51 71 127 140 133 121 2 -5 -7 -24 -20 -42z m172 -24 c0 -4 -34 -41
-75 -84 -41 -42 -75 -73 -75 -68 0 31 53 107 91 132 43 27 59 33 59 20z m1245
-2 c-15 -13 -945 -284 -952 -277 -9 8 -29 1 277 103 327 110 390 128 535 159
121 25 154 29 140 15z m355 -210 c0 -5 -24 -11 -52 -15 -29 -4 -71 -9 -94 -12
-36 -5 -42 -3 -47 15 -5 20 -2 21 94 21 54 0 99 -4 99 -9z m-849 -44 c-10 -10
-347 -70 -363 -65 -5 2 74 26 174 54 151 41 184 48 192 36 5 -8 4 -18 -3 -25z
m407 -9 c-3 -7 -10 -13 -16 -12 -7 1 -24 2 -38 3 -38 2 -18 21 22 21 24 0 34
-4 32 -12z m87 -89 c-115 -50 -262 -99 -296 -99 -4 0 -5 9 -2 20 4 14 14 20
32 20 14 0 59 14 99 32 l73 32 -23 19 -23 19 25 -7 c63 -16 106 -15 145 4 22
11 56 20 75 20 28 1 6 -12 -105 -60z m-1054 -24 c-39 -18 -41 -18 -41 -6 0 5
10 12 23 14 45 9 51 6 18 -8z m687 -31 c-44 -22 -183 -47 -166 -29 7 8 173 53
198 54 8 0 -6 -11 -32 -25z m-9501 -116 c35 -24 63 -47 63 -51 0 -10 -6 -6
-82 45 -32 21 -58 41 -58 43 0 12 19 2 77 -37z m9173 1 c-66 -52 -144 -69
-256 -54 l-59 8 73 23 c72 24 166 41 232 43 l35 1 -25 -21z m801 -20 c167 -22
123 -31 -276 -54 -280 -17 -385 -19 -385 -6 0 9 177 55 245 64 66 9 337 6 416
-4z m-9511 -222 c0 -26 -15 -12 -25 23 -7 22 -6 23 9 11 9 -7 16 -23 16 -34z
m7798 26 c2 -9 -7 -13 -27 -13 -31 0 -42 14 -18 23 19 8 40 3 45 -10z m586 7
c92 -1 108 -3 91 -13 -13 -7 -61 -12 -130 -12 -88 0 -116 4 -140 18 l-30 18
49 -5 c27 -4 99 -6 160 -6z m-323 -62 l84 -43 -39 -3 c-30 -3 -48 3 -80 26
-23 17 -69 40 -101 51 l-60 21 56 -4 c41 -3 79 -16 140 -48z m-8446 -215 c128
-24 143 -29 173 -59 56 -56 33 -71 -53 -34 -26 11 -58 20 -71 20 -14 0 -39 7
-57 17 -18 9 -62 24 -99 33 -53 14 -71 15 -84 6 -14 -11 -1 -19 87 -54 57 -22
127 -46 154 -52 75 -16 115 -30 115 -41 0 -5 -15 -9 -32 -10 l-33 -1 38 -15
c43 -18 50 -37 10 -29 -16 2 -89 8 -163 11 -165 8 -235 19 -269 42 -14 9 -40
16 -57 14 -17 -1 -70 12 -119 28 -48 17 -96 31 -105 31 -9 0 -29 14 -45 30
-24 25 -27 34 -19 48 9 14 29 18 102 20 81 2 94 0 125 -21 20 -13 55 -27 78
-31 44 -7 63 -1 40 13 -17 11 -7 28 33 52 35 23 36 23 251 -18z m-340 6 c5 -6
1 -9 -10 -9 -32 0 -65 12 -65 22 0 11 60 1 75 -13z m7524 -158 c17 -52 66
-123 116 -170 32 -29 46 -52 50 -79 15 -85 44 -182 78 -254 l36 -78 -68 0
c-73 0 -81 -5 -81 -55 0 -33 74 -244 122 -347 33 -72 46 -89 71 -97 46 -16 47
-15 47 44 0 30 2 55 5 55 2 0 25 -12 50 -27 35 -22 45 -34 45 -54 0 -36 21
-51 120 -87 47 -17 123 -48 170 -68 63 -28 100 -38 143 -39 45 -2 63 -7 82
-25 19 -18 28 -21 37 -12 16 16 -7 62 -66 131 -26 29 -45 56 -42 58 2 2 36
-12 76 -32 40 -20 73 -35 74 -33 2 2 10 14 20 28 17 25 17 25 11 -22 -4 -27
-5 -48 -2 -48 3 0 26 9 52 20 26 11 61 20 80 20 44 0 51 10 69 93 5 20 17 33
41 43 27 11 46 34 94 116 33 57 61 100 61 95 0 -18 -136 -369 -170 -437 -62
-123 -63 -124 -161 -122 -117 1 -240 38 -326 97 -79 54 -96 59 -176 51 -34 -4
-104 -9 -154 -12 l-92 -6 -96 47 c-102 50 -119 68 -131 144 -4 22 -12 46 -20
52 -18 15 -55 8 -68 -13 -14 -22 7 -126 39 -188 31 -60 135 -203 193 -262 44
-46 45 -48 21 -48 -61 0 -185 114 -237 216 -61 122 -95 262 -127 529 -8 72
-25 195 -36 275 -23 154 -22 255 2 468 13 109 20 114 48 33z m1491 -43 c0 -5
-7 -8 -15 -8 -8 0 -15 4 -15 9 0 5 -2 24 -6 42 l-5 34 20 -35 c11 -19 20 -38
21 -42z m-179 29 c19 -12 43 -40 53 -61 17 -34 18 -46 7 -101 -6 -34 -14 -97
-17 -139 -6 -66 -9 -76 -26 -76 -37 0 -80 -34 -99 -77 -13 -31 -24 -43 -39
-43 -29 0 -123 45 -145 70 -18 20 -45 115 -45 163 0 26 2 27 54 27 l54 0 22
-59 c22 -59 43 -77 77 -64 45 17 55 237 17 366 -8 26 45 22 87 -6z m-8208
-117 c-17 -4 -49 -4 -70 0 -32 6 -26 8 32 8 53 0 62 -2 38 -8z m8471 -209 c37
-182 34 -259 -14 -349 -18 -34 -34 -61 -36 -59 -2 1 2 34 7 72 7 43 8 148 4
273 -4 114 -3 202 2 202 5 0 21 -63 37 -139z m-776 -372 c-2 -4 -45 15 -96 43
l-92 50 29 34 c27 30 50 86 51 124 1 8 26 -43 56 -114 30 -71 53 -132 52 -137z
m231 109 c21 -35 21 -38 4 -38 -30 0 -40 13 -45 57 -4 48 3 44 41 -19z m-2894
-11 c48 -20 70 -37 112 -88 49 -60 53 -68 53 -119 0 -112 -66 -171 -110 -98
-36 62 -137 101 -203 79 -39 -13 -91 -64 -106 -104 -15 -39 -14 -121 3 -161
33 -80 92 -123 251 -185 99 -38 205 -115 229 -165 23 -49 33 -115 41 -281 6
-129 5 -147 -18 -235 -55 -212 -70 -232 -240 -327 -141 -79 -194 -95 -298 -91
-106 4 -135 21 -217 130 -100 133 -122 210 -82 287 36 72 109 107 167 79 28
-13 28 -14 24 -90 -4 -98 16 -135 92 -172 73 -36 136 -43 192 -21 55 20 79 51
138 176 70 149 99 236 100 304 1 99 -21 123 -193 218 -49 26 -70 45 -83 71
-18 39 -41 46 -73 21 -25 -19 -63 -19 -70 0 -4 8 -22 23 -42 32 -50 24 -103
80 -132 138 -21 44 -24 64 -25 170 0 110 3 128 34 224 19 58 37 99 39 93 2 -7
29 13 60 46 101 103 219 126 357 69z m3028 4 l45 -20 -15 -53 c-8 -29 -17 -60
-20 -68 -5 -14 -61 119 -62 148 -1 16 -1 16 52 -7z m312 -65 c-4 -42 -12 -76
-17 -76 -6 0 -7 17 -4 40 3 22 9 58 12 81 10 68 16 35 9 -45z m-523 -1 c-4
-33 -2 -35 53 -61 70 -34 88 -60 91 -136 2 -32 6 -68 9 -78 9 -29 -6 -25 -52
15 -32 27 -42 44 -47 78 -5 35 -15 51 -45 75 -24 20 -45 49 -58 84 -12 29 -24
61 -28 70 -6 16 -4 16 37 2 42 -14 44 -16 40 -49z m-72 -297 c0 -18 -48 18
-132 101 -49 48 -88 92 -88 100 0 7 50 -33 110 -89 61 -57 110 -107 110 -112z
m-374 121 c70 -71 114 -101 169 -113 17 -4 44 -16 60 -27 20 -14 24 -19 10
-15 -166 43 -253 85 -318 155 -26 27 -47 55 -47 61 0 5 13 10 29 10 23 0 44
-15 97 -71z m-4892 -35 c9 -3 18 -16 22 -27 3 -12 14 -31 24 -42 49 -55 64
-130 33 -157 -10 -9 -42 -21 -72 -27 -29 -6 -83 -23 -119 -37 -51 -21 -86 -27
-156 -29 -132 -4 -254 -43 -302 -97 -11 -12 -45 -68 -74 -123 -50 -93 -54
-106 -58 -182 -8 -154 41 -291 125 -349 80 -54 209 -124 243 -131 19 -3 136
-1 260 5 201 11 270 9 270 -5 0 -14 -56 -96 -79 -115 -15 -13 -70 -45 -122
-71 l-95 -49 -148 7 c-145 8 -149 9 -181 37 -22 19 -52 32 -90 39 -108 20
-218 84 -329 193 -46 45 -55 60 -66 111 -13 64 -8 174 16 315 46 271 158 442
397 604 92 61 192 103 342 140 23 6 137 -2 159 -10z m1346 -32 c139 -68 244
-169 302 -292 26 -53 32 -80 36 -155 6 -115 -8 -169 -99 -389 -92 -221 -114
-261 -166 -299 -24 -17 -43 -34 -43 -38 0 -19 -58 -73 -104 -96 -28 -14 -62
-36 -76 -49 -22 -20 -39 -24 -120 -30 -90 -6 -100 -4 -180 25 -152 56 -240
134 -310 278 -55 110 -65 156 -64 293 0 114 3 133 32 219 44 127 134 300 188
360 31 35 54 51 79 55 41 8 52 27 37 60 -10 21 -6 25 46 50 73 35 186 56 282
53 65 -2 86 -8 160 -45z m2590 18 c99 -15 109 -19 124 -43 8 -12 33 -130 55
-262 22 -132 50 -276 61 -320 12 -44 39 -150 61 -235 22 -85 56 -204 75 -264
38 -119 38 -156 0 -182 -31 -20 -45 -12 -83 44 -30 44 -60 126 -98 264 -12 45
-24 64 -60 96 -69 61 -214 109 -383 126 -127 14 -158 -18 -186 -189 -9 -59
-34 -147 -59 -215 l-43 -115 -34 2 c-41 2 -80 41 -80 81 0 15 -7 36 -15 46 -8
11 -15 30 -15 42 0 27 123 381 190 549 27 66 69 179 93 251 69 202 117 286
182 322 25 14 130 15 215 2z m1234 -186 c26 -15 45 -28 42 -31 -4 -5 -96 46
-96 53 0 7 7 4 54 -22z m-7688 -165 c43 -13 63 -24 54 -29 -7 -4 -36 2 -69 17
-89 40 -85 43 15 12z m222 -71 c-3 -7 -11 -13 -18 -13 -7 0 -15 6 -17 13 -3 7
4 12 17 12 13 0 20 -5 18 -12z m7440 -17 c20 -11 51 -33 67 -51 l30 -31 -29
-22 c-16 -12 -67 -46 -114 -74 -75 -46 -92 -53 -138 -53 -46 0 -54 3 -60 23
-4 12 -39 56 -78 97 -39 41 -80 86 -91 99 l-20 23 120 -7 c75 -4 129 -3 145 3
42 18 127 14 168 -7z m-7500 -50 c-2 -9 -13 -17 -26 -19 -25 -4 -27 1 -10 27
13 22 40 16 36 -8z m130 -46 c5 -5 -51 -89 -90 -135 l-38 -43 -40 12 c-62 18
-52 42 55 131 47 39 65 48 85 44 14 -3 26 -7 28 -9z m187 5 c-3 -5 -12 -10
-18 -10 -7 0 -6 4 3 10 19 12 23 12 15 0z m-102 -46 l48 -35 -18 -30 c-10 -17
-35 -51 -55 -77 -60 -77 -249 -363 -275 -417 -28 -57 -53 -103 -76 -139 -10
-14 -24 -37 -33 -51 -9 -14 -14 -25 -11 -25 2 0 28 36 56 79 52 79 108 143 82
94 -15 -29 -14 -38 3 -23 28 23 -5 -43 -60 -121 -138 -194 -278 -408 -291
-444 -13 -39 -110 -195 -121 -195 -17 0 14 125 58 236 29 71 65 167 81 214 16
47 45 111 65 143 19 31 34 65 32 75 -1 9 10 35 25 57 15 22 27 44 27 50 0 26
60 149 89 183 33 37 29 28 -18 -51 -12 -20 -21 -42 -19 -47 2 -6 36 45 75 113
40 68 92 152 115 188 48 73 54 83 95 159 16 30 35 65 42 78 16 30 27 28 84
-14z m7597 16 c47 -7 91 -14 99 -16 23 -7 -3 -26 -46 -33 -30 -5 -41 -13 -51
-36 -26 -60 -26 -60 -93 -59 -52 0 -139 19 -228 50 -9 3 15 26 65 60 88 62 70
60 254 34z m-805 -136 c19 -8 48 -14 64 -14 42 0 61 -9 61 -30 0 -42 -52 -213
-84 -275 l-35 -69 -40 83 c-25 51 -50 127 -66 199 -25 110 -48 198 -61 239 -4
10 24 -13 60 -50 37 -38 83 -75 101 -83z m-6565 -15 c74 -37 194 -105 265
-151 72 -47 156 -95 188 -107 31 -13 57 -27 57 -32 0 -21 -200 -155 -220 -147
-4 2 15 38 42 81 28 43 47 81 44 85 -4 3 -58 -46 -119 -109 -62 -64 -126 -123
-143 -132 -25 -13 -276 -91 -369 -115 -35 -9 -55 -34 -55 -69 l0 -34 29 21
c46 32 93 49 199 71 53 10 105 22 115 25 17 5 17 4 3 -23 -8 -16 -21 -34 -28
-41 -7 -6 -106 -33 -220 -59 -165 -39 -205 -46 -201 -33 23 74 64 158 91 188
l32 37 -36 -63 c-20 -34 -34 -65 -31 -68 2 -3 38 50 78 118 39 68 98 164 129
213 67 106 131 225 121 225 -4 0 -15 -15 -25 -32 -10 -18 -35 -53 -56 -78 -20
-25 -65 -88 -100 -140 -35 -52 -76 -109 -91 -127 -47 -55 -242 -357 -251 -389
-14 -52 -108 -188 -120 -176 -28 28 104 367 207 532 69 108 140 240 131 240
-2 0 -18 -22 -35 -49 -35 -54 -71 -91 -71 -72 0 7 11 29 25 49 14 20 25 42 25
48 0 16 75 175 94 198 31 38 24 10 -11 -47 -19 -32 -33 -60 -30 -63 3 -3 38
50 78 118 85 144 109 180 118 176 3 -2 67 -33 141 -69z m-902 -44 c-2 -2 -26
-7 -55 -13 -65 -11 -63 7 5 36 l47 21 3 -20 c2 -12 2 -22 0 -24z m7870 -57
c-13 -3 -47 -6 -75 -7 l-53 -1 0 35 0 34 75 -27 c62 -22 71 -28 53 -34z m-168
-18 c0 -58 -1 -60 -20 -50 -11 6 -20 17 -20 25 0 14 31 85 37 85 2 0 3 -27 3
-60z m-7615 31 c-65 -57 -468 -381 -525 -421 -38 -26 -38 -27 42 75 30 39 76
102 102 142 30 46 72 91 117 128 65 52 77 58 147 70 94 16 129 18 117 6z
m8825 -115 c63 -41 128 -83 145 -93 41 -25 74 -90 87 -169 5 -36 8 -67 6 -69
-2 -3 -26 14 -54 37 -157 131 -391 257 -525 283 -23 4 -46 31 -36 41 8 8 184
42 222 43 34 1 59 -11 155 -73z m-9150 30 c0 -3 -59 -76 -132 -163 -72 -87
-152 -186 -177 -219 -39 -52 -73 -79 -223 -177 -118 -77 -178 -111 -178 -101
0 24 115 139 295 297 88 77 201 179 250 227 99 95 165 150 165 136z m295 -47
c-6 -9 -137 -71 -141 -66 -2 2 22 24 53 49 47 37 61 43 75 35 9 -6 15 -14 13
-18z m7743 7 c15 -8 65 -24 112 -36 61 -16 94 -31 117 -53 24 -23 37 -28 57
-23 14 3 37 9 50 12 17 4 30 0 45 -15 26 -26 27 -43 4 -40 -40 4 -56 -2 -85
-31 -28 -29 -32 -30 -52 -15 -103 75 -92 72 -167 41 -24 -10 -63 55 -57 94 4
28 3 29 -12 15 -16 -14 -18 -14 -23 0 -4 8 -18 15 -32 15 -28 0 -29 3 -15 31
13 23 22 24 58 5z m-7448 -16 c-6 -11 -13 -20 -16 -20 -2 0 0 9 6 20 6 11 13
20 16 20 2 0 0 -9 -6 -20z m8345 -70 c13 0 43 -16 67 -35 24 -19 66 -51 95
-70 28 -19 54 -39 58 -45 19 -31 -60 10 -233 121 -65 41 -72 48 -55 58 14 8
21 6 32 -9 7 -11 24 -20 36 -20z m-881 -130 c28 -71 49 -88 61 -50 3 10 1 28
-5 40 -9 18 -8 20 15 20 14 0 33 -8 43 -18 27 -27 118 -209 137 -274 22 -76
34 -158 24 -158 -16 0 -9 -22 38 -121 32 -69 50 -96 57 -89 21 21 36 11 30
-22 -11 -66 -14 -77 -31 -93 -13 -14 -14 -21 -5 -36 16 -25 16 -183 1 -173 -8
4 -9 27 -5 66 6 58 -4 98 -24 98 -6 0 -10 -42 -11 -97 l-1 -98 -17 73 c-9 40
-20 70 -24 66 -13 -14 -7 -92 13 -155 10 -34 17 -66 14 -71 -21 -33 -64 64
-64 145 0 34 -7 118 -15 187 -9 69 -15 168 -14 220 1 76 -4 112 -25 179 -14
47 -26 86 -26 88 0 2 -4 3 -10 3 -5 0 -10 -13 -10 -30 0 -16 -4 -30 -8 -30 -5
0 -16 -6 -26 -13 -17 -13 -17 -18 13 -110 36 -112 38 -146 12 -178 l-18 -23
-17 32 c-20 38 -20 42 -1 42 20 0 19 8 -10 109 -13 47 -38 141 -54 208 -16 68
-41 148 -55 179 -26 56 -32 97 -20 129 8 21 17 11 38 -45z m-1126 6 c6 -13 14
-41 17 -63 4 -21 11 -50 17 -65 9 -23 5 -35 -26 -85 -20 -33 -43 -88 -52 -128
-31 -139 -126 -383 -168 -438 -12 -15 -44 -43 -71 -62 l-49 -35 -22 97 c-13
54 -32 127 -43 163 -12 36 -21 68 -21 73 0 4 52 62 115 128 92 98 116 128 120
158 5 32 54 200 76 259 7 18 16 22 52 22 37 0 46 -4 55 -24z m1686 5 c38 -10
72 -25 77 -33 10 -18 112 -88 128 -88 6 0 8 7 5 15 -4 8 -3 15 1 15 11 0 69
-42 88 -64 32 -36 67 -120 67 -158 l0 -38 -112 94 c-109 92 -113 93 -135 77
-12 -9 -21 -19 -20 -23 1 -4 40 -37 86 -73 l85 -66 12 23 c13 22 13 22 14 -14
0 -24 9 -47 26 -67 32 -39 43 -84 44 -181 0 -62 -3 -79 -19 -92 -10 -8 -21
-22 -23 -29 -4 -11 -12 -8 -32 10 -32 30 -48 20 -18 -12 38 -40 42 -67 33
-224 -5 -81 -12 -156 -15 -165 -3 -10 -8 -25 -11 -35 -5 -14 -7 -14 -19 2 -10
14 -11 28 -4 52 7 24 4 51 -8 96 -39 146 -39 172 -6 185 18 7 17 14 -23 117
-42 108 -43 110 -24 125 19 15 19 17 -16 47 -54 48 -47 65 33 75 38 5 29 21
-38 65 -36 23 -101 78 -145 122 -78 77 -119 101 -178 101 -31 0 -55 18 -87 65
l-31 45 26 0 c15 0 68 -24 118 -54 107 -63 193 -94 210 -77 16 16 -2 30 -113
91 -113 62 -120 68 -100 80 21 13 44 12 124 -9z m626 -62 c0 -23 -9 -24 -39
-2 -23 15 -23 17 -6 29 22 16 45 2 45 -27z m-7689 -33 c-12 -25 -35 -61 -52
-82 -16 -20 -29 -47 -29 -60 0 -29 -63 -105 -320 -387 -14 -15 -21 -16 -43 -6
-24 11 -25 14 -13 38 28 53 137 185 301 365 93 102 171 184 173 181 2 -2 -5
-24 -17 -49z m-671 14 c-6 -11 -13 -20 -16 -20 -2 0 0 9 6 20 6 11 13 20 16
20 2 0 0 -9 -6 -20z m-1057 -43 c-16 -26 -217 -246 -221 -242 -4 4 58 118 80
146 11 14 137 108 146 109 2 0 -1 -6 -5 -13z m8097 -16 c0 -16 -9 -39 -21 -52
-14 -16 -19 -18 -15 -7 2 9 8 33 12 52 8 43 24 48 24 7z m-6549 -10 c-20 -37
-102 -93 -116 -79 -2 2 10 25 27 51 26 41 35 47 65 47 30 0 33 -2 24 -19z
m8012 -73 c59 -73 104 -186 80 -201 -8 -5 -153 239 -153 256 0 16 40 -15 73
-55z m-7584 -40 c7 -46 14 -95 17 -110 3 -16 1 -28 -4 -28 -10 0 -27 37 -38
83 -6 25 3 137 11 137 1 0 8 -37 14 -82z m6163 -104 c9 -27 17 -75 18 -107 0
-83 -44 -247 -95 -352 -24 -49 -49 -109 -56 -132 -7 -24 -15 -43 -18 -43 -4 0
-19 25 -34 56 l-27 55 20 120 c39 227 59 307 94 378 50 98 71 103 98 25z
m-1810 -35 c84 -50 86 -52 92 -98 17 -121 18 -267 2 -350 -9 -46 -16 -113 -16
-150 0 -60 -3 -70 -32 -105 -73 -89 -418 -335 -507 -363 -24 -7 -67 -13 -95
-13 -74 0 -153 -23 -256 -75 -64 -32 -92 -42 -95 -33 -12 34 -41 385 -33 408
5 15 29 36 61 54 28 16 102 61 162 101 61 39 137 86 170 105 33 19 81 55 106
81 63 65 126 188 134 264 7 59 9 63 86 143 62 65 84 82 107 82 16 0 65 -22
114 -51z m-2680 -82 c64 -112 168 -331 168 -353 0 -11 -14 -27 -31 -37 -31
-17 -33 -28 -14 -79 4 -9 -5 -13 -31 -14 -29 0 -44 -8 -67 -34 l-29 -33 37
-31 c28 -24 36 -38 34 -56 -5 -33 38 -49 83 -32 39 14 48 5 48 -50 0 -26 6
-41 20 -51 16 -11 23 -32 30 -93 4 -44 7 -81 4 -83 -2 -2 -34 23 -70 55 -37
32 -81 71 -98 86 -17 15 -43 27 -58 28 -29 0 -135 81 -163 124 -9 13 -31 120
-51 247 -24 146 -44 244 -60 281 -13 31 -21 64 -18 73 4 9 23 25 43 35 20 11
63 37 96 59 33 22 65 40 70 40 6 1 31 -36 57 -82z m1021 25 c-3 -27 2 -81 11
-127 16 -82 19 -338 4 -328 -5 2 -8 11 -8 18 0 17 -31 35 -60 35 -14 0 -57 34
-118 93 -54 51 -118 110 -144 131 -27 21 -48 42 -48 47 0 12 61 37 138 56 61
15 162 72 191 106 27 33 40 21 34 -31z m-556 -200 c66 -71 72 -84 48 -108 -8
-9 -15 -26 -15 -40 0 -20 11 -29 63 -52 43 -20 93 -57 165 -124 57 -53 130
-110 163 -128 84 -45 90 -60 97 -255 2 -89 2 -174 -2 -188 -3 -15 -19 -33 -36
-42 -40 -21 -53 -19 -45 6 7 20 4 21 -21 16 -16 -4 -64 -10 -106 -13 -70 -6
-82 -5 -131 20 -71 34 -81 47 -129 158 -44 101 -168 540 -168 594 0 73 -20
133 -55 162 -19 15 -45 52 -58 82 -47 107 -49 106 65 40 74 -44 120 -79 165
-128z m-841 -67 c59 -147 94 -248 94 -278 l0 -28 -62 43 c-135 94 -248 223
-264 303 l-6 30 94 26 c82 22 94 23 100 9 4 -8 23 -55 44 -105z m2453 59 c-13
-15 -58 -42 -99 -61 -41 -18 -101 -47 -132 -64 -56 -29 -58 -30 -58 -9 0 29
24 82 45 100 15 13 199 56 249 59 18 1 17 -1 -5 -25z m2681 -155 c7 -77 10
-142 8 -144 -9 -9 -50 236 -44 260 13 53 24 20 36 -116z m-6950 -89 c0 -5 -2
-10 -4 -10 -3 0 -8 5 -11 10 -3 6 -1 10 4 10 6 0 11 -4 11 -10z m6957 -212
c-2 -18 -4 -6 -4 27 0 33 2 48 4 33 2 -15 2 -42 0 -60z m-484 -110 c-35 -95
-68 -177 -73 -182 -4 -4 -16 3 -25 18 -17 25 -16 27 66 181 46 85 87 155 90
155 4 0 -22 -78 -58 -172z m616 -55 c3 -2 -5 -34 -17 -71 -12 -38 -22 -94 -22
-125 0 -50 -2 -57 -20 -57 -19 0 -20 7 -20 135 l0 136 38 -7 c20 -4 39 -8 41
-11z m-3417 -1453 c-9 -27 -18 -48 -20 -45 -7 7 19 95 28 95 5 0 1 -22 -8 -50z"/>
<path d="M5597 10092 c-22 -25 -21 -48 3 -74 12 -13 20 -36 20 -57 l1 -36 24
29 c50 62 52 72 19 113 -37 45 -46 49 -67 25z"/>
<path d="M5096 9815 c-63 -72 -77 -95 -57 -95 12 0 141 145 141 159 0 24 -22
8 -84 -64z"/>
<path d="M5526 9799 c-125 -202 -355 -529 -420 -597 -17 -19 -98 -84 -181
-147 -155 -116 -214 -169 -201 -182 11 -11 110 44 197 109 204 151 366 346
571 688 74 123 103 189 96 212 -2 6 -30 -31 -62 -83z"/>
<path d="M6810 9789 c-46 -59 -100 -166 -100 -200 0 -16 24 15 71 96 93 157
92 155 80 155 -6 0 -29 -23 -51 -51z"/>
<path d="M6568 9683 c-11 -27 -38 -86 -60 -132 -62 -135 -28 -114 40 24 34 70
62 133 62 141 0 30 -22 12 -42 -33z"/>
<path d="M6399 9563 c-29 -74 -111 -353 -116 -394 -5 -40 -3 -48 18 -63 24
-17 25 -16 72 35 52 58 57 70 27 62 -17 -5 -20 0 -20 26 l0 32 -25 -28 c-17
-19 -24 -23 -25 -13 0 13 28 118 85 312 15 53 2 78 -16 31z"/>
<path d="M6421 9359 c-31 -72 -38 -99 -23 -99 8 0 72 146 72 163 0 25 -21 -3
-49 -64z"/>
<path d="M6137 9374 c-7 -44 -5 -48 22 -39 26 8 26 23 2 54 l-18 24 -6 -39z"/>
<path d="M5693 9354 c-13 -10 -85 -26 -175 -40 -162 -25 -216 -40 -200 -56 6
-6 48 -2 112 11 138 28 149 28 113 -4 -39 -34 -14 -31 77 10 43 19 93 35 111
35 39 0 111 49 74 50 -11 0 -36 2 -55 5 -23 3 -43 -1 -57 -11z"/>
<path d="M6010 9086 c0 -21 55 -206 62 -206 11 0 10 79 -3 122 -9 35 -58 104
-59 84z"/>
<path d="M7105 8351 c-3 -6 27 -20 67 -31 40 -12 100 -30 133 -40 33 -10 62
-16 63 -15 12 11 -14 46 -36 51 -15 3 -48 14 -74 25 -49 20 -143 26 -153 10z"/>
<path d="M7500 8232 c0 -11 93 -70 122 -77 16 -4 29 -1 38 10 7 8 11 17 9 18
-65 40 -169 70 -169 49z"/>
<path d="M6890 7625 c-62 -28 -80 -52 -80 -109 0 -28 -7 -154 -17 -280 -17
-225 -17 -229 3 -243 13 -10 31 -12 59 -8 22 3 88 12 146 20 58 8 131 24 162
35 77 29 146 94 192 181 l37 71 -28 67 c-55 132 -96 176 -223 239 -61 30 -87
37 -145 40 -48 1 -82 -3 -106 -13z"/>
<path d="M3525 7646 c-110 -37 -137 -52 -180 -96 -22 -23 -70 -61 -107 -86
-105 -69 -164 -181 -228 -434 -16 -65 -30 -128 -30 -139 0 -30 58 -208 86
-262 36 -72 77 -99 221 -146 149 -49 240 -63 425 -66 106 -2 144 2 189 16 81
27 148 81 185 151 44 83 98 250 130 401 25 122 26 136 15 218 -6 49 -20 110
-30 137 -39 104 -181 266 -251 288 -41 13 -160 29 -275 37 -68 4 -91 2 -150
-19z"/>
<path d="M8467 7526 c-15 -16 -97 -308 -97 -348 0 -29 -2 -29 111 -53 63 -14
87 -14 140 -5 97 18 102 22 94 83 -4 29 -13 70 -21 93 -19 55 -104 205 -129
226 -24 21 -78 23 -98 4z"/>
<path d="M5337 5446 c-7 -8 -21 -34 -31 -59 -13 -35 -29 -53 -72 -81 -38 -25
-60 -49 -71 -74 -8 -20 -28 -56 -45 -79 -16 -25 -33 -66 -38 -96 -5 -28 -24
-104 -43 -167 l-35 -116 25 -94 c28 -110 60 -165 142 -243 67 -64 102 -75 183
-58 75 17 123 48 210 139 91 95 122 146 142 232 9 36 24 90 35 121 24 66 27
116 16 264 l-8 110 -56 55 c-59 58 -144 108 -237 140 -68 24 -98 25 -117 6z"/>
<path d="M8092 5173 c-83 -145 -85 -150 -79 -189 3 -20 13 -44 22 -54 8 -9 62
-31 119 -49 98 -31 105 -32 140 -17 65 27 69 74 14 195 -11 24 -23 65 -27 92
-5 27 -10 51 -12 53 -19 16 -75 36 -103 36 -33 0 -38 -4 -74 -67z"/>
<path d="M9378 4319 c-30 -17 -22 -39 11 -33 23 5 32 0 54 -28 29 -36 33 -30
16 21 -16 45 -47 60 -81 40z"/>
<path d="M9530 3826 c0 -29 32 -171 41 -180 13 -14 11 17 -6 107 -8 43 -15 81
-15 83 0 2 -4 4 -10 4 -5 0 -10 -6 -10 -14z"/>
<path d="M1748 9792 c-13 -2 -113 -144 -163 -230 -4 -8 -2 -24 4 -35 9 -17 8
-41 -2 -102 -13 -76 -13 -80 5 -89 14 -7 29 -1 63 23 l45 32 0 -36 c0 -35 1
-37 28 -30 41 10 81 53 110 118 l25 59 56 -6 c31 -3 140 -7 243 -8 206 -3 220
0 202 49 -7 20 -32 40 -91 73 -44 25 -88 51 -96 58 -11 9 -33 11 -74 7 -55 -7
-60 -5 -111 30 -38 26 -71 39 -115 46 -34 5 -73 18 -87 27 -14 10 -33 16 -42
14z"/>
<path d="M4475 9493 c8 -54 12 -63 27 -63 6 0 8 14 4 38 -11 57 -16 72 -28 72
-7 0 -8 -17 -3 -47z"/>
<path d="M1990 9422 c-21 -17 -23 -29 -30 -183 -6 -110 -5 -177 3 -205 14 -56
-13 -107 -60 -112 -46 -5 -63 26 -64 113 0 86 -12 162 -27 177 -9 9 -18 8 -37
0 -29 -13 -32 -42 -11 -99 8 -21 22 -107 31 -191 l17 -154 -21 -14 c-27 -20
-26 -38 6 -104 27 -54 27 -57 22 -220 -5 -202 -2 -577 6 -607 3 -13 16 -25 30
-29 32 -8 101 -132 110 -199 4 -28 22 -102 41 -165 18 -63 45 -171 58 -240 31
-155 48 -203 85 -246 41 -46 51 -87 38 -157 -12 -65 -3 -83 35 -74 47 12 67
70 78 227 6 79 17 173 25 209 16 68 112 421 121 445 5 14 -20 46 -36 46 -12 0
-36 -80 -59 -202 -24 -121 -55 -203 -66 -176 -7 17 11 331 21 380 8 34 -25 69
-56 61 -20 -5 -21 -3 -15 18 4 13 11 31 16 39 7 12 8 10 9 -7 0 -37 20 -36 35
1 9 20 22 68 30 106 17 81 42 135 79 169 33 31 33 59 -1 121 -40 71 -73 66
-91 -15 -9 -41 -138 -343 -153 -359 -17 -18 -9 84 10 142 11 31 45 102 75 157
60 108 59 113 -10 100 -19 -3 -38 -14 -44 -25 -21 -40 -89 -271 -110 -375 -12
-60 -26 -116 -30 -124 -5 -10 -24 36 -55 130 -47 144 -47 144 -40 239 4 52 6
122 5 156 -1 61 31 244 52 289 6 13 19 27 28 30 26 8 58 47 74 90 22 59 19 19
-9 -144 -34 -197 -33 -271 4 -271 34 0 58 29 76 92 22 81 58 151 106 208 54
64 69 106 69 197 0 43 4 84 9 92 10 15 14 14 114 -23 81 -31 118 -33 141 -7
16 18 15 20 -22 52 -23 21 -37 41 -34 52 5 22 13 22 56 -4 34 -20 36 -20 71
-4 19 10 35 18 35 19 0 2 -7 24 -16 50 -9 26 -15 49 -12 51 2 2 47 -7 101 -20
90 -21 101 -22 149 -9 29 7 87 14 128 14 64 0 81 4 113 25 20 14 37 29 37 33
0 5 -15 22 -32 39 -27 26 -55 37 -158 63 -69 17 -219 58 -335 92 -224 64 -262
68 -361 36 -34 -11 -39 -17 -39 -43 0 -27 5 -32 51 -48 40 -14 51 -23 47 -36
-2 -10 3 -23 11 -30 30 -25 16 -31 -68 -31 -68 0 -101 -6 -169 -30 -47 -16
-92 -30 -100 -30 -9 0 -24 12 -35 27 l-19 27 104 153 c104 152 104 153 75 153
-16 0 -35 7 -42 15 -18 21 -32 7 -82 -83 -51 -92 -58 -83 -51 64 6 110 0 126
-37 96z"/>
<path d="M3460 9184 c-6 -14 -10 -32 -10 -40 0 -10 -12 -14 -44 -14 -49 0 -72
-16 -82 -57 -5 -19 5 -48 40 -114 40 -79 46 -97 46 -152 0 -103 -36 -143 -150
-166 -64 -13 -120 -44 -120 -66 0 -21 44 -19 112 5 31 11 64 17 72 14 17 -6
29 -41 46 -129 14 -69 34 -122 56 -146 15 -17 20 -16 91 17 78 35 103 41 103
24 0 -5 9 -14 21 -20 16 -9 26 -8 47 6 15 10 32 24 38 32 6 8 26 22 45 31 27
13 36 25 45 60 9 39 15 46 50 59 21 8 57 15 78 17 25 2 45 10 55 23 9 11 31
23 50 27 30 6 37 15 70 86 l35 79 48 -6 c44 -6 47 -5 53 19 11 41 -3 64 -52
93 l-47 27 22 18 c21 17 22 18 5 31 -10 7 -24 25 -30 40 -13 30 -25 34 -119
42 -79 7 -140 31 -279 111 -62 36 -116 65 -119 65 -13 0 6 -125 21 -142 9 -9
46 -35 83 -57 117 -70 130 -84 130 -146 0 -30 -4 -56 -9 -59 -5 -3 -26 8 -47
25 -42 33 -45 32 -58 -32 -6 -30 -56 -83 -67 -72 -3 4 -25 58 -47 120 -23 61
-53 135 -68 165 -20 39 -28 69 -29 112 -1 48 -5 62 -24 77 -32 26 -50 24 -61
-7z m59 -501 c24 -50 24 -48 -30 -78 -24 -13 -28 -12 -48 9 -11 12 -21 27 -21
32 0 12 59 84 69 84 4 0 17 -21 30 -47z"/>
<path d="M8423 9128 c-6 -7 -38 -83 -72 -169 -62 -157 -158 -322 -282 -490
-70 -95 -68 -101 48 -154 91 -43 97 -44 115 -29 10 10 18 25 18 35 0 16 -53
69 -69 69 -4 0 -13 11 -19 25 -10 21 -9 26 9 36 16 8 29 7 55 -6 32 -15 38
-15 58 -1 18 11 24 26 28 73 9 100 80 226 194 343 95 98 113 130 72 130 -34
-1 -58 -17 -157 -108 -50 -46 -91 -79 -91 -73 0 6 20 51 44 99 60 119 92 232
67 232 -5 0 -13 -6 -18 -12z m-207 -605 c-2 -3 -14 -2 -25 2 l-21 6 22 41 23
41 3 -43 c2 -23 1 -44 -2 -47z"/>
<path d="M2784 8495 c-30 -69 -44 -81 -44 -39 0 29 -70 108 -77 87 -4 -11 31
-206 42 -241 4 -10 14 -8 44 7 33 17 45 34 86 117 25 53 45 97 43 99 -2 1 -17
10 -35 18 l-31 16 -28 -64z"/>
<path d="M2547 8497 c-3 -8 12 -83 34 -168 59 -232 50 -330 -32 -362 -70 -28
-62 -74 24 -134 54 -38 64 -40 130 -29 45 8 47 10 53 47 4 22 22 60 40 87 32
43 37 47 77 47 l42 0 3 89 c3 81 4 88 22 83 24 -6 59 18 45 31 -5 5 -49 14
-97 21 -48 6 -95 14 -103 17 -11 5 -15 -1 -15 -18 0 -13 -6 -33 -14 -44 -13
-17 -16 -17 -30 -4 -22 21 -66 175 -66 230 0 53 -18 82 -62 104 -38 19 -44 20
-51 3z"/>
<path d="M3097 8473 c-22 -26 -31 -68 -18 -92 7 -12 34 -36 61 -54 28 -19 47
-37 43 -40 -10 -10 3 -8 32 5 27 12 27 19 0 83 -19 44 -73 115 -89 115 -7 0
-20 -8 -29 -17z"/>
<path d="M1046 7884 c47 -54 104 -95 104 -74 0 26 -116 130 -145 130 -4 0 15
-25 41 -56z"/>
<path d="M886 7309 c25 -27 67 -49 96 -49 17 0 5 10 -40 35 -72 41 -82 43 -56
14z"/>
<path d="M1000 7235 c22 -27 98 -67 121 -63 15 2 -1 14 -57 41 -45 22 -72 32
-64 22z"/>
<path d="M885 7171 c-6 -11 55 -61 73 -61 19 0 14 19 -13 45 -25 26 -49 32
-60 16z"/>
<path d="M1995 7063 c61 -94 65 -99 65 -75 0 31 -26 79 -49 92 -31 16 -35 12
-16 -17z"/>
<path d="M3210 5789 c-7 -12 -9 -37 -5 -59 6 -36 4 -40 -24 -54 -16 -9 -49
-16 -72 -16 -30 0 -50 -6 -66 -22 l-23 -21 -15 39 c-34 87 -58 108 -108 96
-25 -6 -33 -49 -12 -72 15 -17 16 -46 14 -303 -2 -243 -1 -288 12 -308 l16
-23 25 25 c14 14 33 52 42 85 9 32 32 110 52 172 l35 113 47 19 c84 34 116 57
150 101 18 24 37 50 43 57 5 6 26 12 45 12 37 0 97 21 108 38 3 5 -7 24 -23
41 -24 26 -37 31 -74 31 -35 0 -57 8 -97 35 -29 19 -54 35 -56 35 -2 0 -8 -9
-14 -21z"/>
<path d="M9848 3498 c-14 -64 -9 -80 17 -58 17 14 22 120 6 120 -5 0 -15 -28
-23 -62z"/>
<path d="M9848 3353 c-2 -32 -12 -73 -21 -92 -22 -44 -15 -51 17 -16 29 32 41
80 32 130 -10 53 -23 42 -28 -22z"/>
<path d="M10670 3240 c0 -76 -11 -110 -37 -110 -13 0 -13 -3 -3 -15 15 -18 36
-19 46 -3 9 14 33 126 34 155 0 12 -9 27 -20 33 -19 10 -20 8 -20 -60z"/>
</g>
</svg>
